<svg id="Layer_1" data-name="Layer 1" xmlns="http://www.w3.org/2000/svg" viewBox="0 0 1600 1600"><path d="M500.23,858.2c6.34,27.47,10.14,53.64,18.52,78.24,19.79,58.1,74.62,94.88,138.46,94.91q324.75.2,649.5.06c5,0,10-.2,14.94.18a29.34,29.34,0,0,1,27.18,28.71c.09,14.92-11.51,27.53-26.91,28.92-5,.45-10,.27-14.94.27-214.23,0-428.48-1.5-642.7.68-99.91,1-191.08-65.28-212.27-176.09C408.63,687.2,362,461,317.13,234.37c-2-10-5.56-12.24-14.91-12.14-43.93.44-87.87.25-131.8.17-20.75,0-33.63-11.13-33.88-28.83s12.5-29.87,33-29.95q82.2-.36,164.41,0c20.16.07,29.88,8.48,33.84,28.13,8.87,44,18.37,87.8,26.12,132,2.16,12.33,7.34,13.75,17.81,13.73q232.35-.41,464.7-.18h550.31c28.15,0,39.61,11.64,36.2,39.27-14.94,121-29.53,242.07-46.05,362.87-8.71,63.72-65.59,113.75-129.46,118.09-8.57.58-17.19.7-25.79.7q-370.95,0-741.9,0ZM489.05,799a34.41,34.41,0,0,0,4.46.88q392,0,784-.21c42.52-.08,77.36-32.12,82.83-74,12-92.14,23.37-184.37,34.93-276.56,2.17-17.36,4-34.75,6.06-52.46H408.85C435.71,531.37,462.33,665,489.05,799Z"/><path d="M1348.71,1292.07c-.22,79.22-66,144.79-145,144.45-79.42-.33-144.68-65.73-144.57-144.88.11-79.86,66.13-145.67,145.72-145.23C1283.91,1146.85,1348.94,1212.71,1348.71,1292.07Zm-58.74-.17c.12-48.39-37.47-86.34-85.6-86.43s-86.36,38-86.47,85.81a85.81,85.81,0,0,0,85.85,86.5C1252,1377.86,1289.86,1340.11,1290,1291.9Z"/><path d="M771.27,1293.38c-1.42,80.15-67.28,144.74-146,143.14-81.31-1.64-144.27-67.21-143-148.93,1.22-78.49,68.92-143,148.12-141.15C709.07,1148.28,772.67,1214.63,771.27,1293.38ZM541.11,1291c-.25,48.33,37.41,86.62,85.33,86.78s86.58-37.88,86.83-85.59a85.85,85.85,0,0,0-85.64-86.72C579.21,1205.32,541.37,1242.73,541.11,1291Z"/></svg>