<?xml version="1.0" encoding="iso-8859-1"?>
<!-- Uploaded to: SVG Repo, www.svgrepo.com, Generator: SVG Repo Mixer Tools -->
<!DOCTYPE svg PUBLIC "-//W3C//DTD SVG 1.1//EN" "http://www.w3.org/Graphics/SVG/1.1/DTD/svg11.dtd">
<svg fill="#000000" version="1.1" id="Capa_1" xmlns="http://www.w3.org/2000/svg" xmlns:xlink="http://www.w3.org/1999/xlink" 
	 width="800px" height="800px" viewBox="0 0 300.544 300.544"
	 xml:space="preserve">
<g>
	<path d="M253.072,0c-2.768,0-4.955,2.113-5.262,4.8H52.725C52.426,2.113,50.231,0,47.462,0c-2.971,0-5.375,2.405-5.375,5.375v4.8
		v21.502v4.8c0,2.974,2.404,5.376,5.375,5.376c2.77,0,4.964-2.114,5.263-4.802h12.638c19.927,36.649,9.521,73.144-1.559,111.734
		c-10.724,37.358-21.779,75.91-3.349,114.702h-7.729c-0.299-2.688-2.493-4.797-5.263-4.797c-2.971,0-5.375,2.403-5.375,5.376v4.797
		v21.502v4.803c0,2.978,2.404,5.375,5.375,5.375c2.77,0,4.964-2.114,5.263-4.802H247.81c0.312,2.688,2.501,4.802,5.267,4.802
		c2.977,0,5.376-2.397,5.376-5.375v-4.803v-21.502v-4.797c0-2.973-2.399-5.376-5.376-5.376c-2.766,0-4.955,2.109-5.267,4.797h-14
		c-19.926-36.645-9.489-73.14,1.587-111.728c10.729-37.36,21.78-75.914,3.348-114.708h9.076c0.306,2.688,2.495,4.802,5.261,4.802
		c2.972,0,5.376-2.402,5.376-5.376v-4.8V10.176v-4.8C258.447,2.41,256.042,0,253.072,0z M247.696,284.991H52.837V274.24h194.858
		V284.991z M52.837,15.552h194.858v10.751H52.837V15.552z"/>
</g>
</svg>