<?xml version="1.0" encoding="UTF-8"?>
<svg version="1.1" xmlns="http://www.w3.org/2000/svg" width="1080" height="262">
<path d="M0 0 C356.4 0 712.8 0 1080 0 C1080 86.46 1080 172.92 1080 262 C723.6 262 367.2 262 0 262 C0 175.54 0 89.08 0 0 Z " fill="#FEFEFE" transform="translate(0,0)"/>
<path d="M0 0 C11.54397721 1.3632079 23.08430484 2.75292563 34.6171875 4.20703125 C35.4499118 4.3119841 36.28263611 4.41693695 37.14059448 4.52507019 C38.85131897 4.74071778 40.56204284 4.9563703 42.27276611 5.17202759 C43.1315033 5.28025848 43.99024048 5.38848938 44.875 5.5 C45.74324402 5.60943939 46.61148804 5.71887878 47.50604248 5.83163452 C57.87116732 7.13589771 68.23708294 8.38859545 78.625 9.5 C91.10035952 10.8372357 103.5302204 12.48149798 115.96313477 14.16186523 C123.3118897 15.15063342 130.65378518 16.09820835 138.03125 16.84765625 C139.23128662 16.97140625 140.43132324 17.09515625 141.66772461 17.22265625 C143.85979539 17.4420998 146.05333372 17.64754359 148.24829102 17.8359375 C153.67877906 18.38231007 157.18608207 18.79085741 161 23 C163.47491865 26.05538513 165.81030588 29.19706914 168.125 32.375 C169.45309576 34.17416059 170.78253294 35.97233173 172.11328125 37.76953125 C172.7676416 38.65463379 173.42200195 39.53973633 174.09619141 40.45166016 C177.2108389 44.62076641 180.43309765 48.70195987 183.67431641 52.77294922 C185.55198466 55.13560241 187.32414021 57.48621031 189 60 C192.61707406 58.38860208 195.5097127 56.18105107 198.625 53.75 C199.18131104 53.31743896 199.73762207 52.88487793 200.31079102 52.43920898 C201.5408417 51.4822426 202.7697058 50.52374964 203.99755859 49.56396484 C206.11607878 47.9093391 208.23921149 46.26077597 210.36328125 44.61328125 C211.11311279 44.0311084 211.86294434 43.44893555 212.63549805 42.84912109 C214.17138521 41.65709412 215.70800805 40.46601445 217.24536133 39.27587891 C220.89403547 36.44470972 224.51776165 33.59234184 228.0859375 30.66015625 C229.03351929 29.88949829 229.03351929 29.88949829 230.00024414 29.10327148 C231.17443871 28.14547166 232.34088344 27.17805941 233.49780273 26.19946289 C235.85737131 24.28497244 237.65058032 23.06834238 240.65625 22.48046875 C243.73961678 23.16394839 244.68192998 24.26428416 246.6875 26.6875 C247.37714844 27.51378906 248.06679687 28.34007813 248.77734375 29.19140625 C251.99577239 33.25827829 255.168215 37.35801042 258.3046875 41.48828125 C261.09618972 45.14968869 263.98287604 48.73043411 266.875 52.3125 C271.199497 57.69384609 275.45192156 63.12527522 279.625 68.625 C280.38852783 69.61947144 280.38852783 69.61947144 281.16748047 70.6340332 C283.68010542 73.97179495 285.69014123 76.97796306 287 81 C281.04800828 81.11951791 275.36649108 80.67998119 269.46875 79.90625 C268.59222778 79.79526978 267.71570557 79.68428955 266.81262207 79.56994629 C264.04112986 79.21795775 261.27057938 78.85909562 258.5 78.5 C256.60943324 78.25865794 254.71880869 78.01776806 252.828125 77.77734375 C248.21806554 77.19012104 243.60883722 76.5967365 239 76 C239.03480469 77.28390625 239.06960937 78.5678125 239.10546875 79.890625 C239.09911997 87.09776446 238.34678704 94.2213102 237.56567383 101.37841797 C237.39623315 102.96563763 237.23647134 104.55391903 237.08618164 106.14306641 C236.86621545 108.46787737 236.61798515 110.78814302 236.36328125 113.109375 C236.27074821 114.16424103 236.27074821 114.16424103 236.17634583 115.24041748 C235.42837419 121.50903311 232.82528892 124.49843411 228.20166016 128.59228516 C227.65300293 128.98722168 227.1043457 129.3821582 226.5390625 129.7890625 C225.9107251 130.24917725 225.2823877 130.70929199 224.63500977 131.18334961 C223.97170654 131.65909424 223.30840332 132.13483887 222.625 132.625 C221.18728763 133.67892675 219.75112489 134.73497023 218.31640625 135.79296875 C217.59340332 136.32583496 216.87040039 136.85870117 216.12548828 137.40771484 C212.87614345 139.84192424 209.71754258 142.38293463 206.5625 144.9375 C200.54364851 149.79866539 194.4318047 154.52360016 188.2746582 159.20800781 C183.16336063 163.09999505 178.0913719 167.03744642 173.05786133 171.02954102 C170.15033026 173.33107159 167.22118591 175.59226644 164.2421875 177.80078125 C163.63536133 178.25428955 163.02853516 178.70779785 162.40332031 179.17504883 C161.24455474 180.03839599 160.08006251 180.89412596 158.90917969 181.7409668 C157.17351169 183.0050096 157.17351169 183.0050096 155 185 C155 185.99 155 186.98 155 188 C154.11441406 188.25523437 153.22882813 188.51046875 152.31640625 188.7734375 C148.93136031 190.02538618 146.7696127 191.41227847 143.9375 193.625 C142.90367187 194.42292969 141.86984375 195.22085938 140.8046875 196.04296875 C140.21526367 196.5023584 139.62583984 196.96174805 139.01855469 197.43505859 C135.80227945 199.92856661 132.55694193 202.38369192 129.31616211 204.84521484 C123.01279416 209.63463441 116.71913159 214.43638503 110.45581055 219.27807617 C92.70367133 233 92.70367133 233 91 233 C90.41632455 221.931784 91.95960756 211.23941751 93.42578125 200.29736328 C94.54584397 191.93521348 95.63441311 183.5689497 96.71673584 175.20184326 C97.11612084 172.13077621 97.52293343 169.06075614 97.93017578 165.99072266 C98.5577232 161.21313738 99.14689786 156.4325208 99.69610596 151.64529419 C99.89390968 149.92348016 100.09859194 148.20243784 100.31121826 146.48239136 C101.75932103 136.49105603 101.75932103 136.49105603 98.7109375 127.18359375 C97.64301267 125.89701662 96.52875083 124.6477079 95.375 123.4375 C94.78614014 122.7475293 94.19728027 122.05755859 93.59057617 121.34667969 C92.3656646 119.91449543 91.12319584 118.49714405 89.86376953 117.09521484 C86.88707646 113.74887218 84.11556279 110.24164491 81.3125 106.75 C80.22869975 105.42379621 79.14407937 104.09826218 78.05859375 102.7734375 C74.42697858 98.31681533 70.9327028 93.76101749 67.4453125 89.19140625 C64.91141293 85.8736898 62.33423081 82.59108534 59.75 79.3125 C55.47882351 73.89133256 51.23362866 68.45053847 47 63 C42.84789522 57.6550904 38.68683 52.31775535 34.5 47 C28.5707102 39.46508921 22.67528948 31.90418535 16.80371094 24.32421875 C14.97060514 21.96212249 13.129879 19.60608986 11.2890625 17.25 C10.1090192 15.72944272 8.92931887 14.20861921 7.75 12.6875 C7.20102051 11.98842529 6.65204102 11.28935059 6.08642578 10.5690918 C3.46244692 7.16907097 1.31686941 4.1513505 0 0 Z " fill="#282526" transform="translate(2,3)"/>
<path d="M0 0 C0 3.96 0 7.92 0 12 C-5.94 12.495 -5.94 12.495 -12 13 C-11.93689317 20.81548451 -11.86132397 28.63061485 -11.76428509 36.44573975 C-11.71970595 40.07529445 -11.68042326 43.70474014 -11.65356445 47.33447266 C-11.62740597 50.84250351 -11.58691734 54.35011198 -11.53681374 57.85787964 C-11.51220113 59.83622646 -11.50213277 61.81473713 -11.49235535 63.79321289 C-11.3753748 75.06187456 -11.3753748 75.06187456 -5.625 84.375 C0.68645209 88.28208939 6.13927648 88.93900341 13.40625 87.53515625 C19.06352067 85.94169168 21.80623007 83.93582626 25 79 C26.6473057 74.82237399 27.26216348 71.28908522 27.31884766 66.81103516 C27.33871735 65.61024323 27.35858704 64.40945129 27.37905884 63.17227173 C27.39061005 61.89081268 27.40216125 60.60935364 27.4140625 59.2890625 C27.43279211 57.95241118 27.45236684 56.61577145 27.4727478 55.27914429 C27.52388601 51.7775967 27.56360901 48.27601086 27.60089111 44.77429199 C27.64104627 41.19448526 27.69208583 37.61483515 27.7421875 34.03515625 C27.83872963 27.02354588 27.92219606 20.01184309 28 13 C21.07 12.505 21.07 12.505 14 12 C14 8.04 14 4.08 14 0 C35.97172198 -0.12527736 57.93885942 -0.02361113 79.90844727 0.31838989 C82.36820069 0.35585658 84.82800211 0.39030514 87.2878418 0.42160034 C131.64858836 1.00071351 131.64858836 1.00071351 145 14 C155.04221474 25.09715447 157.34938957 36.38521068 157.25 50.9375 C157.25773437 52.06607422 157.26546875 53.19464844 157.2734375 54.35742188 C157.24012803 68.672168 153.9520339 82.17396088 143.7109375 92.73828125 C131.01800008 103.32792213 116.43636023 104.32472936 100.484375 104.1953125 C99.13389295 104.19157073 97.78340813 104.18872928 96.43292236 104.18673706 C92.92144949 104.17919198 89.41014872 104.15962502 85.89874268 104.1373291 C82.2984042 104.116671 78.69803723 104.10769318 75.09765625 104.09765625 C68.06502806 104.07636797 61.03254356 104.04126334 54 104 C54 100.37 54 96.74 54 93 C58.30785975 91.64851459 61.41957592 91 66 91 C66 65.59 66 40.18 66 14 C60.3553188 13.14894626 60.3553188 13.14894626 54.81640625 12.90234375 C54.11708984 12.90556641 53.41777344 12.90878906 52.69726562 12.91210938 C51.64055664 12.92467773 51.64055664 12.92467773 50.5625 12.9375 C49.83095703 12.94201172 49.09941406 12.94652344 48.34570312 12.95117188 C46.56376581 12.96281852 44.78187137 12.98074809 43 13 C43.00999275 14.1130098 43.00999275 14.1130098 43.02018738 15.24850464 C43.08057901 22.27967629 43.12611584 29.3107564 43.15543652 36.3421154 C43.17101793 39.95605511 43.19211627 43.56977849 43.22631836 47.18359375 C43.25918345 50.67845884 43.27690942 54.17311732 43.28463173 57.66812515 C43.29278089 59.63435945 43.31615582 61.60051194 43.33988953 63.56661987 C43.34212548 75.61027647 40.92757371 86.92050581 32.21875 95.8203125 C27.08349208 100.00849416 21.25904012 102.02825069 15 104 C14.01 104.33 13.02 104.66 12 105 C-3.04387278 106.29135777 -17.44978073 105.41678626 -29.84375 95.98046875 C-36.50197603 89.86503289 -40.53061877 81.77654768 -41.26325989 72.76013184 C-41.34586622 68.95114335 -41.33816661 65.14886091 -41.29296875 61.33984375 C-41.28736211 59.94023599 -41.28309707 58.54062227 -41.28010559 57.14100647 C-41.26874061 53.48637162 -41.23934742 49.83210378 -41.20599365 46.1776123 C-41.17511085 42.43681805 -41.16156165 38.69596356 -41.14648438 34.95507812 C-41.11446796 27.63655281 -41.06337521 20.31832815 -41 13 C-42.93741369 12.97227866 -44.87495233 12.9532891 -46.8125 12.9375 C-48.43091797 12.92009766 -48.43091797 12.92009766 -50.08203125 12.90234375 C-55.06658203 13.0265848 -60.03437797 13.54857982 -65 14 C-65 39.41 -65 64.82 -65 91 C-59.555 91.495 -59.555 91.495 -54 92 C-53.34 92.33 -52.68 92.66 -52 93 C-52 96.63 -52 100.26 -52 104 C-70.15 104 -88.3 104 -107 104 C-107 100.37 -107 96.74 -107 93 C-100.565 92.01 -100.565 92.01 -94 91 C-94 80.11 -94 69.22 -94 58 C-105.22 58 -116.44 58 -128 58 C-128 68.89 -128 79.78 -128 91 C-123.71 91.66 -119.42 92.32 -115 93 C-115 96.63 -115 100.26 -115 104 C-132.82 104 -150.64 104 -169 104 C-169 100.37 -169 96.74 -169 93 C-163.06 92.01 -163.06 92.01 -157 91 C-157 65.59 -157 40.18 -157 14 C-162.94 13.01 -162.94 13.01 -169 12 C-169 8.37 -169 4.74 -169 1 C-151.18 1 -133.36 1 -115 1 C-115 4.63 -115 8.26 -115 12 C-119.29 12.66 -123.58 13.32 -128 14 C-128 23.9 -128 33.8 -128 44 C-116.78 44 -105.56 44 -94 44 C-94 34.1 -94 24.2 -94 14 C-98.29 13.34 -102.58 12.68 -107 12 C-107 8.37 -107 4.74 -107 1 C-71.3283494 0.22470863 -35.67995525 -0.14515848 0 0 Z " fill="#2E2B2B" transform="translate(916,130)"/>
<path d="M0 0 C0 3.96 0 7.92 0 12 C-5.94 12.495 -5.94 12.495 -12 13 C-11.95952747 20.79828928 -11.90223262 28.59603071 -11.81609726 36.39392757 C-11.77674804 40.01564669 -11.7444988 43.63712725 -11.72900391 47.2590332 C-11.71375345 50.76067303 -11.67916279 54.26165647 -11.63169098 57.7630024 C-11.60984183 59.73520513 -11.6075335 61.70759352 -11.60565186 63.67991638 C-11.49110622 70.77030901 -11.05338193 76.97653709 -7 83 C-1.52455613 87.46975009 3.10999127 88.43266259 10.0078125 88.33203125 C14.93121086 87.78570114 19.29367123 86.33635656 23 83 C27.68252233 75.71302749 27.60134674 68.1925063 27.609375 59.77734375 C27.62438413 58.42255199 27.64111694 57.06777834 27.65948486 55.71302795 C27.70286534 52.1769214 27.72309144 48.64106151 27.73822021 45.10473633 C27.75789822 41.48439116 27.79985547 37.86430834 27.83984375 34.24414062 C27.9148274 27.16283638 27.96324692 20.08162105 28 13 C21.565 12.505 21.565 12.505 15 12 C15 8.04 15 4.08 15 0 C36.77692284 -0.12916324 58.5493819 -0.01353295 80.32424927 0.31838989 C82.84233242 0.35589537 85.3604632 0.39033795 87.87863159 0.42160034 C91.46356339 0.46724916 95.04811096 0.52504438 98.6328125 0.5859375 C99.68889206 0.59749374 100.74497162 0.60904999 101.83305359 0.62095642 C118.02420909 0.93764618 134.01222581 3.1147697 145.90234375 14.8828125 C155.46287841 25.19121139 158.57780079 37.58527396 158.375 51.4375 C158.36484863 52.44594971 158.35469727 53.45439941 158.34423828 54.4934082 C158.05423817 68.40779356 154.38154136 81.33836047 145 92 C134.87895513 100.81924381 122.76713349 104.14062808 109.51391602 104.11352539 C108.27315811 104.11344986 107.03240021 104.11337433 105.75404358 104.11329651 C104.42066405 104.10819154 103.08728494 104.10297557 101.75390625 104.09765625 C100.37385611 104.09578847 98.99380531 104.09436627 97.61375427 104.09336853 C94.00198498 104.08957168 90.39025665 104.07976594 86.77850342 104.06866455 C83.08476312 104.05838918 79.39101613 104.05385785 75.69726562 104.04882812 C68.46482519 104.03814082 61.23241836 104.02109888 54 104 C54 100.37 54 96.74 54 93 C62.5 91 62.5 91 67 91 C66.67 65.59 66.34 40.18 66 14 C60.24048402 13.36005378 55.14057106 12.88213038 49.4375 12.9375 C48.21933594 12.94652344 47.00117187 12.95554688 45.74609375 12.96484375 C44.38677734 12.98224609 44.38677734 12.98224609 43 13 C43.01110306 13.76040085 43.02220612 14.5208017 43.03364563 15.304245 C43.1344884 22.52576545 43.21028582 29.74693699 43.25906086 36.96898174 C43.28498118 40.68055836 43.32004903 44.39154564 43.37719727 48.1027832 C43.43215594 51.69495613 43.46155199 55.286568 43.47438622 58.87912941 C43.48790753 60.89354106 43.5268351 62.90773188 43.56648254 64.92179871 C43.56979162 75.96497138 41.19598456 86.99780082 33.29296875 95.21484375 C20.4702029 105.19781478 6.62156495 106.06992926 -9 105 C-18.64066836 103.40443574 -27.38472295 99.34863675 -33.84375 91.86328125 C-40.71294377 82.21610471 -41.43065392 72.94316128 -41.29296875 61.33984375 C-41.28736211 59.94023599 -41.28309707 58.54062227 -41.28010559 57.14100647 C-41.26874061 53.48637162 -41.23934742 49.83210378 -41.20599365 46.1776123 C-41.17511085 42.43681805 -41.16156165 38.69596356 -41.14648438 34.95507812 C-41.11446796 27.63655281 -41.06337521 20.31832815 -41 13 C-43.31243128 12.97257987 -45.62496094 12.95341718 -47.9375 12.9375 C-49.22527344 12.92589844 -50.51304687 12.91429687 -51.83984375 12.90234375 C-56.24058254 13.00564748 -60.6249724 13.51388582 -65 14 C-65 39.41 -65 64.82 -65 91 C-60.71 91.66 -56.42 92.32 -52 93 C-52 96.63 -52 100.26 -52 104 C-69.82 104 -87.64 104 -106 104 C-106 93 -106 93 -105 92 C-101.37 91.67 -97.74 91.34 -94 91 C-94 80.11 -94 69.22 -94 58 C-104.89 58 -115.78 58 -127 58 C-127 69.22 -127 80.44 -127 92 C-124.36 92 -121.72 92 -119 92 C-117.68 92.33 -116.36 92.66 -115 93 C-115 96.63 -115 100.26 -115 104 C-132.82 104 -150.64 104 -169 104 C-169 100.37 -169 96.74 -169 93 C-164 92 -164 92 -157 92 C-157 65.93 -157 39.86 -157 13 C-159.31 13 -161.62 13 -164 13 C-165.65 12.67 -167.3 12.34 -169 12 C-169 8.37 -169 4.74 -169 1 C-151.18 1 -133.36 1 -115 1 C-115 4.63 -115 8.26 -115 12 C-119 13 -119 13 -127 13 C-127 23.23 -127 33.46 -127 44 C-116.11 44 -105.22 44 -94 44 C-94 34.1 -94 24.2 -94 14 C-97.63 13.67 -101.26 13.34 -105 13 C-106 12 -106 12 -106.09765625 9.49609375 C-106.08605469 8.48675781 -106.07445312 7.47742188 -106.0625 6.4375 C-106.05347656 5.42558594 -106.04445313 4.41367188 -106.03515625 3.37109375 C-106.02355469 2.58863281 -106.01195312 1.80617187 -106 1 C-70.6617485 0.21089957 -35.3468395 -0.14322058 0 0 Z " fill="#2B2728" transform="translate(585,130)"/>
<path d="M0 0 C4.05216282 1.54018858 5.83355678 4.06514841 8.375 7.5 C9.26219451 8.68421327 10.15026485 9.86777073 11.0390625 11.05078125 C11.75304199 12.00718506 11.75304199 12.00718506 12.48144531 12.98291016 C15.19347643 16.58528975 17.97563235 20.13305814 20.75 23.6875 C21.94806751 25.22644508 23.14598228 26.76550908 24.34375 28.3046875 C25.56245675 29.86982534 26.78120693 31.43492937 28 33 C35.14254775 42.17185369 42.27951876 51.3469349 49.35546875 60.5703125 C51.40926848 63.24065407 53.47809912 65.89897782 55.55078125 68.5546875 C56.48374023 69.75061523 56.48374023 69.75061523 57.43554688 70.97070312 C58.65304922 72.53027168 59.87172882 74.08892219 61.09179688 75.64648438 C71 88.34030804 71 88.34030804 71 91 C68.68165603 92.87051669 66.34995778 94.63286853 63.9375 96.375 C58.30273629 100.51700701 52.75171872 104.72903658 47.3125 109.125 C41.76965095 113.59494677 36.17207409 117.97485159 30.515625 122.30078125 C27.08999014 124.92371944 23.68794137 127.57642627 20.28637695 130.23046875 C14.21005456 134.96976022 8.13253495 139.70854655 2 144.375 C1.071875 145.08398438 0.14375 145.79296875 -0.8125 146.5234375 C-3 148 -3 148 -5 148 C-6.54096792 146.17969328 -7.96327759 144.35495912 -9.375 142.4375 C-10.28112217 141.23199679 -11.18873394 140.02761212 -12.09765625 138.82421875 C-12.57348145 138.19306152 -13.04930664 137.5619043 -13.53955078 136.91162109 C-15.90742056 133.81225292 -18.36141824 130.78367292 -20.8125 127.75 C-25.10750187 122.41774861 -29.29927905 117.01717347 -33.4375 111.5625 C-38.20641284 105.27986121 -43.11124612 99.13058851 -48.11376953 93.03295898 C-52.68540803 87.43888064 -57.08945942 81.72722857 -61.44580078 75.96435547 C-65.09463947 71.143923 -68.86007009 66.46623435 -72.8046875 61.8828125 C-73.19914062 61.26148438 -73.59359375 60.64015625 -74 60 C-72.58561715 55.75685146 -69.44072292 54.13760585 -65.9375 51.625 C-60.10270876 47.35127997 -54.39976173 42.96782041 -48.8125 38.375 C-42.57249874 33.25791297 -36.24233339 28.29602441 -29.82666016 23.39990234 C-19.79716082 15.71356858 -9.82380823 7.94790515 0 0 Z " fill="#FEFEFE" transform="translate(155,33)"/>
<path d="M0 0 C8.58 0 17.16 0 26 0 C27.02996094 2.73796875 28.05992187 5.4759375 29.12109375 8.296875 C30.55902677 12.11491105 31.99826821 15.93245336 33.4375 19.75 C33.81260712 20.74553894 34.18771423 21.74107788 34.57418823 22.76678467 C38.96893415 34.42477261 43.3972396 46.06839234 47.9140625 57.6796875 C48.30688919 58.69051392 48.69971588 59.70134033 49.10444641 60.74279785 C51.00136815 65.62133803 52.9044921 70.49733771 54.81616211 75.37011719 C55.50390537 77.13470254 56.1914952 78.89934771 56.87890625 80.6640625 C57.19683136 81.4682663 57.51475647 82.27247009 57.84231567 83.1010437 C60 88.65988932 60 88.65988932 60 92 C61.68740514 92.02746229 63.3749463 92.04660111 65.0625 92.0625 C66.00222656 92.07410156 66.94195312 92.08570313 67.91015625 92.09765625 C71.29159252 91.99078405 74.65087739 91.47844609 78 91 C78 65.26 78 39.52 78 13 C74.04 12.67 70.08 12.34 66 12 C66 8.04 66 4.08 66 0 C84.81 0 103.62 0 123 0 C123 3.96 123 7.92 123 12 C118.05 12.33 113.1 12.66 108 13 C108 38.41 108 63.82 108 90 C120.21 89.67 132.42 89.34 145 89 C145.33 86.69 145.66 84.38 146 82 C146.61880564 79.69494899 147.28482391 77.40199445 148 75.125 C148.350625 73.99320312 148.70125 72.86140625 149.0625 71.6953125 C150 69 150 69 151 68 C153.01964199 67.92755947 155.04167124 67.91622812 157.0625 67.9375 C158.16722656 67.94652344 159.27195312 67.95554687 160.41015625 67.96484375 C161.26480469 67.97644531 162.11945313 67.98804688 163 68 C162.49193713 76.70391924 161.8041165 85.37372341 160.9609375 94.05078125 C160.8683667 95.01262329 160.7757959 95.97446533 160.68041992 96.9654541 C160.4545942 99.31039924 160.22776987 101.65524305 160 104 C145.68755836 104.17178769 131.37505879 104.33826203 117.0625 104.5 C115.48635674 104.51781588 115.48635674 104.51781588 113.87837219 104.53599167 C82.25095032 104.8919025 50.62970951 105.16521465 19 105 C19 101.04 19 97.08 19 93 C23.95 92.505 23.95 92.505 29 92 C28.4946875 90.72382813 27.989375 89.44765625 27.46875 88.1328125 C26.81232261 86.46361142 26.15608228 84.79433676 25.5 83.125 C25.16613281 82.28324219 24.83226562 81.44148438 24.48828125 80.57421875 C24.17246094 79.76855469 23.85664063 78.96289062 23.53125 78.1328125 C23.09135742 77.01737061 23.09135742 77.01737061 22.64257812 75.87939453 C22 74 22 74 22 72 C10.78 72 -0.44 72 -12 72 C-12.66 74.97 -13.32 77.94 -14 81 C-15.2128831 84.72275434 -16.60909415 88.33728125 -18 92 C-14.37 92.33 -10.74 92.66 -7 93 C-7 96.96 -7 100.92 -7 105 C-18.88 105 -30.76 105 -43 105 C-43 101.37 -43 97.74 -43 94 C-41.78070801 93.7330835 -40.56141602 93.46616699 -39.30517578 93.19116211 C-36.48978265 92.11960994 -35.24890436 91.3741828 -33.56585693 88.84402466 C-32.26794594 85.91494436 -31.17050128 82.96723322 -30.1171875 79.94140625 C-29.69971756 78.82080811 -29.28224762 77.70020996 -28.85212708 76.5456543 C-27.49852896 72.89419401 -26.18700881 69.22908461 -24.875 65.5625 C-23.95469491 63.0592465 -23.03194506 60.55708154 -22.10473633 58.05639648 C-20.71218791 54.29465747 -19.32250712 50.53198916 -17.94813538 46.76356506 C-14.29530277 36.74974047 -10.49426946 26.80094481 -6.59747314 16.87985229 C-5.44422798 13.94297956 -4.29805417 11.00337297 -3.15219116 8.06361389 C-2.10325373 5.37504239 -1.05137047 2.68762099 0 0 Z " fill="#312E2F" transform="translate(251,130)"/>
<path d="M0 0 C17.82 0 35.64 0 54 0 C54 3.63 54 7.26 54 11 C50 12 50 12 42 12 C42 22.23 42 32.46 42 43 C52.89 43 63.78 43 75 43 C75 33.1 75 23.2 75 13 C71.37 12.67 67.74 12.34 64 12 C63.505 11.505 63.505 11.505 63 11 C63 7.37 63 3.74 63 0 C80.49 0 97.98 0 116 0 C116 3.63 116 7.26 116 11 C112.04 11.66 108.08 12.32 104 13 C104 38.41 104 63.82 104 90 C108.29 90.66 112.58 91.32 117 92 C117 95.63 117 99.26 117 103 C99.18 103 81.36 103 63 103 C63 92 63 92 64 91 C67.63 90.67 71.26 90.34 75 90 C75 79.11 75 68.22 75 57 C64.11 57 53.22 57 42 57 C42 68.22 42 79.44 42 91 C44.64 91 47.28 91 50 91 C51.32 91.33 52.64 91.66 54 92 C54 95.63 54 99.26 54 103 C36.18 103 18.36 103 0 103 C0 99.37 0 95.74 0 92 C5 91 5 91 12 91 C12 64.93 12 38.86 12 12 C9.69 12 7.38 12 5 12 C3.35 11.67 1.7 11.34 0 11 C0 7.37 0 3.74 0 0 Z " fill="#2A2627" transform="translate(416,131)"/>
<path d="M0 0 C17.82 0 35.64 0 54 0 C54 3.63 54 7.26 54 11 C49.71 11.66 45.42 12.32 41 13 C41 22.9 41 32.8 41 43 C52.22 43 63.44 43 75 43 C75 33.1 75 23.2 75 13 C70.71 12.34 66.42 11.68 62 11 C62 7.37 62 3.74 62 0 C79.82 0 97.64 0 116 0 C116 3.63 116 7.26 116 11 C113.13255824 13.86744176 108.03852125 12.6328617 104 13 C104 38.41 104 63.82 104 90 C109.445 90.495 109.445 90.495 115 91 C115.66 91.33 116.32 91.66 117 92 C117 95.63 117 99.26 117 103 C98.85 103 80.7 103 62 103 C62 99.37 62 95.74 62 92 C68.435 91.01 68.435 91.01 75 90 C75 79.11 75 68.22 75 57 C63.78 57 52.56 57 41 57 C41 67.89 41 78.78 41 90 C45.29 90.66 49.58 91.32 54 92 C54 95.63 54 99.26 54 103 C36.18 103 18.36 103 0 103 C0 99.37 0 95.74 0 92 C5.94 91.01 5.94 91.01 12 90 C12 64.59 12 39.18 12 13 C6.06 12.01 6.06 12.01 0 11 C0 7.37 0 3.74 0 0 Z " fill="#262223" transform="translate(747,131)"/>
<path d="M0 0 C6.17064268 -0.04990255 12.34116464 -0.08595473 18.51196289 -0.10986328 C20.60573374 -0.11984358 22.69949094 -0.13343259 24.79321289 -0.15087891 C63.40258459 -0.4642517 63.40258459 -0.4642517 76.8359375 12.5 C85.02672261 21.96227882 86.3612308 32.64633204 86.375 44.6875 C86.39949219 45.79544922 86.42398437 46.90339844 86.44921875 48.04492188 C86.49032739 59.7677355 83.44083635 71.25443591 75.18359375 79.90234375 C64.00704435 90.24776032 51.44481207 91.34004554 36.671875 91.1953125 C34.99934662 91.19106766 34.99934662 91.19106766 33.29302979 91.18673706 C29.77857105 91.17566202 26.26437995 91.15058194 22.75 91.125 C20.34765997 91.11495379 17.94531588 91.10583084 15.54296875 91.09765625 C9.69522326 91.07576442 3.84763076 91.04241595 -2 91 C-2 90.67 -2 90.34 -2 90 C0.97 90 3.94 90 7 90 C7 60.63 7 31.26 7 1 C4.69 1 2.38 1 0 1 C0 0.67 0 0.34 0 0 Z " fill="#F9F8F8" transform="translate(981,137)"/>
<path d="M0 0 C6.02822705 -0.04991844 12.05633034 -0.08596198 18.0847168 -0.10986328 C20.12998555 -0.11984099 22.17524034 -0.13342795 24.22045898 -0.15087891 C58.07667248 -0.43225541 58.07667248 -0.43225541 72.4375 10.375 C81.85059808 20.01768583 84.26627935 32.13382682 84.24658203 45.20581055 C84.0533494 57.6851977 81.34757176 70.27499097 73.25390625 80.125 C62.66837601 90.33640547 49.15887704 91.16571638 35.28125 91.09765625 C33.633526 91.09553383 33.633526 91.09553383 31.95251465 91.09336853 C28.46831457 91.08780257 24.98418042 91.07525639 21.5 91.0625 C19.1276051 91.0574806 16.75520918 91.05291846 14.3828125 91.04882812 C8.58851944 91.0378443 2.79426443 91.0211403 -3 91 C-3 90.67 -3 90.34 -3 90 C-0.36 90 2.28 90 5 90 C5 60.63 5 31.26 5 1 C3.35 1 1.7 1 0 1 C0 0.67 0 0.34 0 0 Z " fill="#F9F9F9" transform="translate(653,137)"/>
<path d="M0 0 C12.13607438 0.69752801 24.14722225 2.34434616 36.1953125 3.90625 C38.43720159 4.19423188 40.67913562 4.48186406 42.92111206 4.76916504 C48.79269324 5.52226239 54.6638109 6.27890714 60.53479004 7.03668213 C69.93606452 8.24991994 79.3378068 9.45949288 88.73998642 10.66569519 C92.00545305 11.08541346 95.27057449 11.50774262 98.53567505 11.93029785 C100.55518292 12.18996277 102.57470335 12.44953002 104.59423828 12.70898438 C105.48804199 12.82537766 106.3818457 12.94177094 107.30273438 13.06169128 C113.52376187 13.85745525 119.75098032 14.46905744 126 15 C126 15.66 126 16.32 126 17 C124.26406765 18.48443685 122.4560534 19.88462191 120.625 21.25 C119.42783346 22.15161133 118.23125143 23.05399912 117.03515625 23.95703125 C116.38562988 24.44510254 115.73610352 24.93317383 115.06689453 25.43603516 C111.37032548 28.23313194 107.71846455 31.08766669 104.0625 33.9375 C103.29180176 34.53723633 102.52110352 35.13697266 101.72705078 35.75488281 C97.14181127 39.32450868 92.5662942 42.9061821 88 46.5 C82.52992463 50.80333023 77.05053893 55.094598 71.5625 59.375 C70.81677734 59.95830078 70.07105469 60.54160156 69.30273438 61.14257812 C64.94113328 64.54015957 60.52188014 67.81859816 56 71 C51.92539915 67.08356295 48.35161639 62.90209639 44.8125 58.5 C44.24007568 57.79149902 43.66765137 57.08299805 43.07788086 56.35302734 C38.4238611 50.57235428 33.88894966 44.70873615 29.38671875 38.80908203 C26.63010024 35.21285964 23.84491926 31.63877123 21.0625 28.0625 C20.17353027 26.91865845 20.17353027 26.91865845 19.26660156 25.75170898 C16.44714642 22.12774356 13.61891772 18.511463 10.765625 14.9140625 C10.26538818 14.28234131 9.76515137 13.65062012 9.24975586 12.99975586 C8.3234976 11.83182397 7.39480536 10.66581625 6.46313477 9.50219727 C4.04538853 6.4528765 1.9696662 3.35150407 0 0 Z " fill="#FDFDFD" transform="translate(20,14)"/>
<path d="M0 0 C9.9 0 19.8 0 30 0 C30 0.33 30 0.66 30 1 C28.02 1 26.04 1 24 1 C24 14.86 24 28.72 24 43 C39.18 43 54.36 43 70 43 C70 29.14 70 15.28 70 1 C67.69 1 65.38 1 63 1 C63 0.67 63 0.34 63 0 C72.9 0 82.8 0 93 0 C93 0.33 93 0.66 93 1 C91.02 1 89.04 1 87 1 C87 30.37 87 59.74 87 90 C88.98 90 90.96 90 93 90 C93 90.33 93 90.66 93 91 C83.76 91 74.52 91 65 91 C65 90.67 65 90.34 65 90 C66.65 90 68.3 90 70 90 C70 75.15 70 60.3 70 45 C54.82 45 39.64 45 24 45 C24 59.85 24 74.7 24 90 C25.98 90 27.96 90 30 90 C30 90.33 30 90.66 30 91 C20.1 91 10.2 91 0 91 C0 90.67 0 90.34 0 90 C2.31 90 4.62 90 7 90 C7 60.63 7 31.26 7 1 C4.69 1 2.38 1 0 1 C0 0.67 0 0.34 0 0 Z " fill="#FAFAFA" transform="translate(758,137)"/>
<path d="M0 0 C11.22 0 22.44 0 34 0 C34 0.33 34 0.66 34 1 C31.03 1 28.06 1 25 1 C25 14.86 25 28.72 25 43 C40.18 43 55.36 43 71 43 C71 29.14 71 15.28 71 1 C68.69 1 66.38 1 64 1 C64 0.67 64 0.34 64 0 C73.9 0 83.8 0 94 0 C94 0.33 94 0.66 94 1 C92.02 1 90.04 1 88 1 C88 30.37 88 59.74 88 90 C89.65 90 91.3 90 93 90 C93 90.33 93 90.66 93 91 C83.43 91 73.86 91 64 91 C64 90.67 64 90.34 64 90 C66.31 90 68.62 90 71 90 C71 75.15 71 60.3 71 45 C55.82 45 40.64 45 25 45 C25 59.85 25 74.7 25 90 C27.97 90 30.94 90 34 90 C34 90.33 34 90.66 34 91 C22.78 91 11.56 91 0 91 C0 90.67 0 90.34 0 90 C2.97 90 5.94 90 9 90 C9 60.63 9 31.26 9 1 C6.03 1 3.06 1 0 1 C0 0.67 0 0.34 0 0 Z " fill="#FCFCFC" transform="translate(426,137)"/>
<path d="M0 0 C5.94 0 11.88 0 18 0 C18.56807373 1.48806152 19.13614746 2.97612305 19.72143555 4.50927734 C23.33967033 13.98702617 26.95791962 23.46476938 30.57714844 32.94213867 C30.8157276 33.5668893 31.05430676 34.19163992 31.30011559 34.83532238 C32.26299655 37.35674504 33.22587923 39.87816703 34.18878555 42.39958 C36.88754581 49.46646245 39.5854969 56.53365145 42.28108215 63.60174561 C43.49596184 66.78697702 44.7115835 69.97192488 45.92739868 73.15679932 C46.47413142 74.58956159 47.02050007 76.02246284 47.5664978 77.45550537 C48.30903367 79.40428447 49.05279472 81.35259143 49.796875 83.30078125 C50.20260742 84.36466064 50.60833984 85.42854004 51.02636719 86.5246582 C51.93815327 88.95029408 51.93815327 88.95029408 53 91 C45.41 91 37.82 91 30 91 C30.99 90.67 31.98 90.34 33 90 C27.555 75.15 27.555 75.15 22 60 C8.14 59.67 -5.72 59.34 -20 59 C-20.99 62.3 -21.98 65.6 -23 69 C-23.59712358 70.86032095 -24.2028556 72.71794687 -24.82421875 74.5703125 C-25.28344727 75.94316406 -25.28344727 75.94316406 -25.75195312 77.34375 C-26.21504883 78.72046875 -26.21504883 78.72046875 -26.6875 80.125 C-27.00783203 81.08148438 -27.32816406 82.03796875 -27.65820312 83.0234375 C-28.43740909 85.34942545 -29.21850361 87.6747806 -30 90 C-26.7 90.33 -23.4 90.66 -20 91 C-20 91.33 -20 91.66 -20 92 C-26.27 92 -32.54 92 -39 92 C-38.01 91.01 -38.01 91.01 -37 90 C-36.01 90 -35.02 90 -34 90 C-33.86174805 89.48332764 -33.72349609 88.96665527 -33.58105469 88.43432617 C-31.05533391 79.51104821 -27.60873356 70.9458704 -24.25 62.3125 C-23.58995009 60.60797663 -22.93028883 58.90330271 -22.27099609 57.19848633 C-21.24261723 54.53977675 -20.21383532 51.88122793 -19.18356323 49.22325134 C-16.68043835 42.76549075 -14.19172287 36.30231054 -11.7109375 29.8359375 C-11.19345947 28.48755043 -11.19345947 28.48755043 -10.66552734 27.11192322 C-9.32008646 23.60591815 -7.97477697 20.09986321 -6.63049316 16.59341431 C-5.70512946 14.18040113 -4.77849506 11.76787962 -3.8515625 9.35546875 C-3.43854385 8.27699173 -3.43854385 8.27699173 -3.0171814 7.17672729 C-1.11394943 2.22789885 -1.11394943 2.22789885 0 0 Z " fill="#FBFBFB" transform="translate(255,137)"/>
<path d="M0 0 C7.20732834 -0.04671314 14.41462308 -0.08206437 21.62207317 -0.10362434 C24.97021096 -0.11398153 28.31816543 -0.12910201 31.66625977 -0.15087891 C35.53143998 -0.17537399 39.39647457 -0.18653931 43.26171875 -0.1953125 C44.44142746 -0.20563507 45.62113617 -0.21595764 46.83659363 -0.22659302 C63.34955845 -0.22878077 79.76060623 1.86573348 91.90234375 13.8828125 C101.46287841 24.19121139 104.57780079 36.58527396 104.375 50.4375 C104.36484863 51.44594971 104.35469727 52.45439941 104.34423828 53.4934082 C104.05423817 67.40779356 100.38154136 80.33836047 91 91 C80.87895513 99.81924381 68.76713349 103.14062808 55.51391602 103.11352539 C54.27315811 103.11344986 53.03240021 103.11337433 51.75404358 103.11329651 C50.42066405 103.10819154 49.08728494 103.10297557 47.75390625 103.09765625 C46.37385611 103.09578847 44.99380531 103.09436627 43.61375427 103.09336853 C40.00198498 103.08957168 36.39025665 103.07976594 32.77850342 103.06866455 C29.08476312 103.05838918 25.39101613 103.05385785 21.69726562 103.04882812 C14.46482519 103.03814082 7.23241836 103.02109888 0 103 C0 99.37 0 95.74 0 92 C8.5 90 8.5 90 13 90 C12.67 64.59 12.34 39.18 12 13 C7.38 12.34 2.76 11.68 -2 11 C-1.34 10.67 -0.68 10.34 0 10 C0 6.7 0 3.4 0 0 Z M14 6 C14 6.33 14 6.66 14 7 C15.65 7 17.3 7 19 7 C19 36.37 19 65.74 19 96 C16.36 96 13.72 96 11 96 C11 96.33 11 96.66 11 97 C17.93763058 97.05099583 24.87521224 97.08585714 31.81298828 97.10986328 C34.16977749 97.11987842 36.52655441 97.13349442 38.88330078 97.15087891 C42.28421068 97.17532519 45.68495531 97.18652831 49.0859375 97.1953125 C50.12801361 97.20563507 51.17008972 97.21595764 52.2437439 97.22659302 C64.7508036 97.22848183 77.79960803 95.08916085 87.18359375 86.16015625 C97.21973561 74.22470153 99.01960626 57.96394353 98.17285156 42.92871094 C97.3143855 33.34978167 93.28282389 22.5545415 86 16 C73.8884498 7.30943153 62.0283797 5.82045979 47.49609375 5.90234375 C46.5322023 5.9037587 45.56831085 5.90517365 44.57521057 5.90663147 C41.52927402 5.91218058 38.48341393 5.92472331 35.4375 5.9375 C33.35872503 5.94252159 31.27994889 5.94708334 29.20117188 5.95117188 C24.13408561 5.96213329 19.06705572 5.9793622 14 6 Z " fill="#282425" transform="translate(639,131)"/>
<path d="M0 0 C7.19007589 -0.04554672 14.38007031 -0.08208378 21.570261 -0.10362434 C24.91052344 -0.11397318 28.25060158 -0.12908235 31.59082031 -0.15087891 C35.44859495 -0.17540477 39.30622355 -0.18654617 43.1640625 -0.1953125 C44.92588364 -0.21079636 44.92588364 -0.21079636 46.72329712 -0.22659302 C62.54329936 -0.2286891 80.0810903 1.39543518 92 13 C102.04221474 24.09715447 104.34938957 35.38521068 104.25 49.9375 C104.26160156 51.63036133 104.26160156 51.63036133 104.2734375 53.35742188 C104.24012803 67.672168 100.9520339 81.17396088 90.7109375 91.73828125 C78.01800008 102.32792213 63.43636023 103.32472936 47.484375 103.1953125 C46.13389295 103.19157073 44.78340813 103.18872928 43.43292236 103.18673706 C39.92144949 103.17919198 36.41014872 103.15962502 32.89874268 103.1373291 C29.2984042 103.116671 25.69803723 103.10769318 22.09765625 103.09765625 C15.06502806 103.07636797 8.03254356 103.04126334 1 103 C1 99.37 1 95.74 1 92 C5.30785975 90.64851459 8.41957592 90 13 90 C13 64.59 13 39.18 13 13 C8.38 12.34 3.76 11.68 -1 11 C-0.67 7.37 -0.34 3.74 0 0 Z M12 6 C12 6.33 12 6.66 12 7 C14.31 7 16.62 7 19 7 C19 36.37 19 65.74 19 96 C16.03 96 13.06 96 10 96 C10 96.33 10 96.66 10 97 C17.04342519 97.05108968 24.08680185 97.08589578 31.13037109 97.10986328 C33.52199082 97.11986466 35.9135985 97.13347009 38.30517578 97.15087891 C41.76077262 97.17538669 45.21620651 97.18654208 48.671875 97.1953125 C50.25231598 97.21079636 50.25231598 97.21079636 51.86468506 97.22659302 C65.55088433 97.22861964 77.41126414 95.21404237 87.875 85.8125 C96.70975013 76.25741053 98.36081478 63.71747567 98.375 51.3125 C98.41173828 49.65057617 98.41173828 49.65057617 98.44921875 47.95507812 C98.48914348 36.56987685 95.86192044 26.46960511 88 18 C87.48695312 17.44570312 86.97390625 16.89140625 86.4453125 16.3203125 C73.06886308 3.45588028 50.74325795 5.73287986 33.6875 5.875 C31.5787803 5.88505156 29.47005595 5.89417355 27.36132812 5.90234375 C22.2407689 5.92418092 17.12043682 5.95859056 12 6 Z " fill="#292526" transform="translate(969,131)"/>
<path d="M0 0 C9.95667902 0 15.64069762 0.59204574 23.3125 6.25 C32.05896516 15.19987132 32.34880185 27.49703315 32.3125 39.375 C32.32861328 40.42171875 32.34472656 41.4684375 32.36132812 42.546875 C32.36816703 53.62589703 30.65344237 63.11754842 23.5625 71.75 C16.57234041 77.34212767 8.94465962 75 0 75 C0 50.25 0 25.5 0 0 Z " fill="#FBFBFB" transform="translate(1011,145)"/>
<path d="M0 0 C9.44996587 0 16.69206304 0.39075022 23.98828125 6.7265625 C31.60150406 15.90776916 31.45254909 27.86593152 31.3125 39.1875 C31.31733398 41.15879883 31.31733398 41.15879883 31.32226562 43.16992188 C31.26889052 52.79199695 30.5962493 61.83201153 25 70 C16.49187556 76.77177251 12.469256 75 0 75 C0 50.25 0 25.5 0 0 Z " fill="#FDFDFD" transform="translate(681,145)"/>
<path d="M0 0 C6.6 0 13.2 0 20 0 C19.97381592 2.06813965 19.94763184 4.1362793 19.9206543 6.26708984 C19.83747266 13.13208752 19.78244446 19.99710858 19.74093914 26.86247826 C19.71494448 31.02138499 19.67973483 35.1797715 19.62280273 39.33837891 C19.56811705 43.3584663 19.53850344 47.37805618 19.52561378 51.39848709 C19.51643889 52.92539925 19.49852345 54.45228693 19.47134972 55.97898483 C19.3198925 64.84826153 19.52349461 72.60193972 25 80 C30.09069963 84.85737024 35.65738198 87.04637566 42.6875 87.3125 C49.5214051 87.14757921 56.83751683 85.98780231 62.4375 81.8125 C68.21768182 75.468398 70.09245059 68.93655601 70.20532227 60.48730469 C70.21522186 59.84298492 70.22512146 59.19866516 70.23532104 58.53482056 C70.26680429 56.41387555 70.29164103 54.29290819 70.31640625 52.171875 C70.33698718 50.69784985 70.35798395 49.22383045 70.37937927 47.74981689 C70.4344824 43.87667509 70.48394334 40.00348105 70.53222656 36.13024902 C70.58252763 32.17532726 70.63816871 28.22048102 70.69335938 24.265625 C70.80079705 16.51048068 70.90227374 8.75527342 71 1 C70.01 0.67 69.02 0.34 68 0 C70.31 0 72.62 0 75 0 C74.93836056 7.98990019 74.86095505 15.9794361 74.76428509 23.96898174 C74.71985762 27.68022614 74.68054383 31.3913677 74.65356445 35.1027832 C74.62725173 38.69511664 74.58666099 42.28704826 74.53681374 45.87912941 C74.51239713 47.89325903 74.50217335 49.90754502 74.49235535 51.92179871 C74.3286907 62.34258626 73.92276519 73.98344419 66.8671875 82.28515625 C57.4086268 90.97199338 46.90662418 92.59042794 34.58984375 92.30859375 C24.37604821 91.79927765 15.09223072 88.5650461 8 81 C3.46886413 74.5518451 1.87172937 69.23997619 1.88647461 61.39550781 C1.88632858 60.74143448 1.88618256 60.08736115 1.8860321 59.41346741 C1.88672659 57.25998574 1.89449717 55.10659148 1.90234375 52.953125 C1.90420958 51.45668586 1.90563271 49.96024612 1.90663147 48.46380615 C1.91044365 44.53141585 1.92026283 40.59906268 1.93133545 36.66668701 C1.94157751 32.65149437 1.94613508 28.6362957 1.95117188 24.62109375 C1.96188628 16.74737883 1.97894709 8.87369404 2 1 C1.34 0.67 0.68 0.34 0 0 Z " fill="#F7F7F7" transform="translate(879,137)"/>
<path d="M0 0 C6.6 0 13.2 0 20 0 C19.9685791 3.01133057 19.9685791 3.01133057 19.93652344 6.08349609 C19.86996444 12.74896892 19.82594996 19.41445721 19.79275131 26.0801754 C19.77195996 30.11792085 19.74379927 34.1553231 19.69824219 38.19287109 C19.65447954 42.09623162 19.63079948 45.999264 19.62049103 49.9028511 C19.61315375 51.38507877 19.59882699 52.8672904 19.57707977 54.34937668 C19.43718373 64.28712652 19.9887999 72.72813702 26.1875 80.875 C33.98642033 86.76751758 41.28334849 88.14382912 51 87 C57.2354159 85.55249274 61.65723091 83.10292153 65.74609375 78.171875 C70.59501587 69.77311892 70.39588849 61.76441912 70.29296875 52.34375 C70.2873649 50.8306114 70.28309854 49.31746731 70.28010559 47.80432129 C70.26871877 43.84554693 70.23930579 39.88710926 70.20599365 35.9284668 C70.17515886 31.87944084 70.16157176 27.83035983 70.14648438 23.78125 C70.11442922 15.85401315 70.06330882 7.9270486 70 0 C71.65 0 73.3 0 75 0 C74.9850478 8.65917208 74.9431115 17.31769142 74.86790943 25.97655106 C74.83380194 29.99843873 74.80855503 34.01995312 74.80444336 38.04199219 C74.80012511 41.93272798 74.77137565 45.82262405 74.72656822 49.71309662 C74.7137046 51.1879866 74.70924547 52.66297766 74.71384621 54.13791656 C74.73811894 64.2941352 73.94912215 74.14521564 67.11677551 82.22784424 C62.5006629 86.76178071 57.06727504 88.99553613 51 91 C50.01 91.33 49.02 91.66 48 92 C34.71344834 92.76074796 22.05095505 92.06469373 11 84 C4.13883188 77.34886764 1.85384392 69.29892904 1.65942383 59.91967773 C1.64908683 57.17381336 1.67598233 54.42925596 1.70703125 51.68359375 C1.71263717 50.21672503 1.71690255 48.74985063 1.71989441 47.28297424 C1.73126499 43.45079624 1.76066335 39.61896767 1.79400635 35.78692627 C1.82487677 31.86516037 1.83843575 27.94333716 1.85351562 24.02148438 C1.885542 16.34749817 1.93664192 8.67379833 2 1 C1.34 0.67 0.68 0.34 0 0 Z " fill="#F9F9F9" transform="translate(548,137)"/>
<path d="M0 0 C7.26 0 14.52 0 22 0 C21.01 0.33 20.02 0.66 19 1 C19 30.37 19 59.74 19 90 C43.15288368 89.86112631 43.15288368 89.86112631 67 87 C67.50660156 85.06833984 67.50660156 85.06833984 68.0234375 83.09765625 C68.4735376 81.41915795 68.92408138 79.74077859 69.375 78.0625 C69.59671875 77.21236328 69.8184375 76.36222656 70.046875 75.48632812 C70.26601563 74.67744141 70.48515625 73.86855469 70.7109375 73.03515625 C70.90993652 72.2862915 71.10893555 71.53742676 71.31396484 70.76586914 C72 69 72 69 74 68 C73.85865273 70.89611544 73.7120847 73.7918081 73.5625 76.6875 C73.52318359 77.50412109 73.48386719 78.32074219 73.44335938 79.16210938 C73.40146484 79.95810547 73.35957031 80.75410156 73.31640625 81.57421875 C73.27974854 82.30213623 73.24309082 83.03005371 73.20532227 83.7800293 C72.98061224 86.20962294 72.47851613 88.60741935 72 91 C46.26 91 20.52 91 -6 91 C-6 90.67 -6 90.34 -6 90 C-3.03 90 -0.06 90 3 90 C3 60.63 3 31.26 3 1 C2.01 0.67 1.02 0.34 0 0 Z " fill="#FEFEFE" transform="translate(333,137)"/>
<path d="M0 0 C14.96337094 0.44270328 26.76962334 3.1699998 37.25 14.25 C44.50500281 23.12601162 45.22061169 33.54691368 45.3125 44.5 C45.34150391 45.62148437 45.37050781 46.74296875 45.40039062 47.8984375 C45.48894403 59.69647558 42.49996105 71.19251391 34.18359375 79.90234375 C25.15879029 88.25602679 15.52088985 91.31437306 3.2265625 90.89453125 C-1.18973046 90.68111894 -5.59360557 90.36230354 -10 90 C-10 89.67 -10 89.34 -10 89 C-8.87722656 88.97421875 -7.75445313 88.9484375 -6.59765625 88.921875 C6.5607901 88.69439011 6.5607901 88.69439011 17.7265625 82.4140625 C25.99295965 72.76314563 26.60713155 59.91388438 26.375 47.8125 C26.37306641 45.87987305 26.37306641 45.87987305 26.37109375 43.90820312 C26.2746899 33.416251 25.4695363 24.11589384 20 15 C19.2265625 13.700625 19.2265625 13.700625 18.4375 12.375 C13.06514851 7.14040111 6.42013087 3.91930825 -1 3 C-0.67 2.01 -0.34 1.02 0 0 Z " fill="#FAFAFA" transform="translate(1022,137)"/>
<path d="M0 0 C13.64513542 0.22503222 26.09813872 3.03599315 36 13 C45.03347926 24.098923 45.82178181 38.29754928 45 52 C43.68034145 62.89277478 40.48242121 74.11661966 32.375 81.9375 C20.41847767 91.18176774 6.42024155 91.92605398 -8.12109375 90.25390625 C-9.05115234 90.12822266 -9.05115234 90.12822266 -10 90 C-10 89.67 -10 89.34 -10 89 C-8.94941406 88.97421875 -7.89882813 88.9484375 -6.81640625 88.921875 C2.7374596 88.58269797 11.16851365 88.1712074 18.3125 81.0625 C22.17722438 76.12424107 23.47653028 69.9766889 25 64 C25.1757959 63.39285156 25.3515918 62.78570312 25.53271484 62.16015625 C28.54966391 48.2134659 27.49661492 29.13784885 20.64453125 16.5 C15.82433852 9.47001382 9.04714043 4.95229065 0.6875 3.375 C-0.199375 3.25125 -1.08625 3.1275 -2 3 C-1.34 2.01 -0.68 1.02 0 0 Z " fill="#F9F9F9" transform="translate(692,137)"/>
<path d="M0 0 C2.74752744 2.70936733 5.43999127 5.39549222 7.875 8.390625 C8.37926514 9.00969727 8.88353027 9.62876953 9.40307617 10.26660156 C9.93006104 10.92112305 10.4570459 11.57564453 11 12.25 C11.55598877 12.93803711 12.11197754 13.62607422 12.68481445 14.33496094 C16.9129991 19.59306519 21.07233406 24.90306793 25.1875 30.25 C25.73986328 30.96446289 26.29222656 31.67892578 26.86132812 32.41503906 C27.37501953 33.08760742 27.88871094 33.76017578 28.41796875 34.453125 C28.86938232 35.04254883 29.3207959 35.63197266 29.78588867 36.23925781 C31.06056647 38.08783539 32.0432602 39.97121028 33 42 C25.34285161 48.48047651 17.39239408 54.51998635 9.34667969 60.50610352 C4.41346772 64.17783936 -0.46397609 67.90439339 -5.28076172 71.72802734 C-7 73 -7 73 -8 73 C-7.41216207 61.49347706 -6.09543107 50.16392601 -4.5625 38.75 C-4.12308085 35.45354445 -3.68685888 32.1566861 -3.25390625 28.859375 C-3.14825348 28.05552368 -3.04260071 27.25167236 -2.93374634 26.42346191 C-1.79549475 17.63264718 -0.88504712 8.81937323 0 0 Z " fill="#FBFBFB" transform="translate(111,145)"/>
<path d="M0 0 C-0.61992053 11.6729931 -1.67578922 23.25601442 -2.9375 34.875 C-3.10903479 36.48043557 -3.2802594 38.08590431 -3.45117188 39.69140625 C-4.60159941 50.46452284 -5.79638897 61.23271309 -7 72 C-7.66 72 -8.32 72 -9 72 C-10.48443685 70.26406765 -11.88462191 68.4560534 -13.25 66.625 C-14.1463714 65.43432028 -15.04355403 64.24425098 -15.94140625 63.0546875 C-16.42883301 62.4059668 -16.91625977 61.75724609 -17.41845703 61.08886719 C-20.30278369 57.27931194 -23.24868443 53.517571 -26.1875 49.75 C-27.88329158 47.57195869 -29.57880869 45.39373373 -31.27099609 43.21289062 C-32.49872722 41.64156121 -33.73717383 40.07857809 -34.98291016 38.52148438 C-35.62405762 37.71517578 -36.26520508 36.90886719 -36.92578125 36.078125 C-37.51399658 35.3449707 -38.10221191 34.61181641 -38.70825195 33.85644531 C-40 32 -40 32 -40 30 C-37.66113349 28.10764437 -35.30969263 26.32435024 -32.875 24.5625 C-31.40133527 23.47793144 -29.92869834 22.39196514 -28.45703125 21.3046875 C-27.71018066 20.75393555 -26.96333008 20.20318359 -26.19384766 19.63574219 C-22.9389056 17.20884348 -19.74648258 14.70640363 -16.5625 12.1875 C-15.99039795 11.73600586 -15.4182959 11.28451172 -14.82885742 10.81933594 C-13.21832055 9.54737917 -11.60899059 8.27391191 -10 7 C-8.23123097 5.60155176 -6.46069834 4.20532772 -4.6875 2.8125 C-3.99011719 2.26207031 -3.29273438 1.71164063 -2.57421875 1.14453125 C-1 0 -1 0 0 0 Z " fill="#FBFBFB" transform="translate(237,40)"/>
<path d="M0 0 C24.31972789 0 24.31972789 0 32.91796875 7.72265625 C42.71554341 18.23050285 44.39522711 30.75324765 44.375 44.625 C44.37258301 46.34444824 44.37258301 46.34444824 44.37011719 48.09863281 C44.19673178 60.13022008 42.88539684 71.64300064 34.2890625 80.828125 C33.73992188 81.29734375 33.19078125 81.7665625 32.625 82.25 C32.08101562 82.72953125 31.53703125 83.2090625 30.9765625 83.703125 C21.65405343 89.81987008 10.90427032 87 0 87 C0 58.29 0 29.58 0 0 Z M6 6 C6 30.75 6 55.5 6 81 C19.09036982 82.00781833 19.09036982 82.00781833 30 77 C37.23636098 68.04976405 37.20805498 58.38114731 37.24023438 47.33422852 C37.24988974 45.33532739 37.28107117 43.33656798 37.3125 41.33789062 C37.35306458 31.18153346 36.73982717 20.86862532 29.98828125 12.7265625 C22.69206304 6.39075022 15.44996587 6 6 6 Z " fill="#2C2829" transform="translate(675,139)"/>
<path d="M0 0 C23.43362832 0 23.43362832 0 34 8 C45.62986738 19.8005363 44.477744 36.13992211 44.37356567 51.59642029 C44.2147584 62.25560662 42.73605352 71.41864552 36.25 80.1875 C24.80068453 90.09556146 15.87459291 87 0 87 C0 58.29 0 29.58 0 0 Z M6 6 C6 30.75 6 55.5 6 81 C21.58382361 82.26710519 21.58382361 82.26710519 29 78 C37.98025289 69.01974711 38.18039648 57.84019845 38.1875 45.75 C38.20586914 44.12771484 38.20586914 44.12771484 38.22460938 42.47265625 C38.24537992 30.99347106 37.08848883 20.25761352 28.75 11.6875 C20.71928349 6.75956033 16.15435587 6 6 6 Z " fill="#272425" transform="translate(1005,139)"/>
<path d="M0 0 C2.7653284 1.3826642 2.84218657 2.77111713 3.87939453 5.65576172 C4.239617 6.64704071 4.59983948 7.6383197 4.97097778 8.65963745 C5.35438324 9.73875397 5.7377887 10.81787048 6.1328125 11.9296875 C6.52951141 13.03095978 6.92621033 14.13223206 7.33493042 15.26687622 C8.17386962 17.60098608 9.00922661 19.93638606 9.84130859 22.27294922 C11.11818359 25.85587309 12.40777925 29.43402236 13.69921875 33.01171875 C14.51117956 35.27576821 15.32240218 37.54008258 16.1328125 39.8046875 C16.52026642 40.87975555 16.90772034 41.95482361 17.30691528 43.06246948 C17.83779251 44.55884445 17.83779251 44.55884445 18.37939453 46.08544922 C18.69313019 46.96401581 19.00686584 47.8425824 19.33010864 48.74777222 C20 51 20 51 20 54 C6.8 54 -6.4 54 -20 54 C-16.62301624 42.74338747 -16.62301624 42.74338747 -14.51171875 37.20703125 C-14.05514893 36.0058667 -13.5985791 34.80470215 -13.12817383 33.56713867 C-12.64811376 32.31552933 -12.16788658 31.06398406 -11.6875 29.8125 C-11.19473696 28.52130458 -10.70214343 27.23004446 -10.2097168 25.9387207 C-6.89323199 17.25743699 -3.52051062 8.60074114 0 0 Z " fill="#2A2627" transform="translate(256,140)"/>
<path d="M0 0 C0.66 0 1.32 0 2 0 C3.56262052 1.84089541 5.00618592 3.68524733 6.4375 5.625 C7.33241916 6.81579175 8.22828738 8.00587072 9.125 9.1953125 C9.59292969 9.81825195 10.06085938 10.44119141 10.54296875 11.08300781 C13.40795782 14.85242708 16.37198787 18.5455084 19.33178711 22.24072266 C21.81473277 25.37229139 24.03280996 28.52008627 26 32 C16.42460227 32.4633257 7.37866335 30.71635669 -2 29 C-1.4609807 19.32058953 -0.87445886 9.65625851 0 0 Z " fill="#F9F9F9" transform="translate(245,41)"/>
<path d="M0 0 C3.09439244 1.54719622 3.25485733 3.98028072 4.3828125 7.1875 C4.60194305 7.80520264 4.82107361 8.42290527 5.04684448 9.05932617 C5.74639518 11.03721747 6.43557399 13.0185599 7.125 15 C7.59702396 16.33616104 8.06967247 17.67210162 8.54296875 19.0078125 C12 28.81101515 12 28.81101515 12 30 C4.41 30 -3.18 30 -11 30 C-7.61962301 18.73207669 -7.61962301 18.73207669 -6.2109375 14.90234375 C-5.90929687 14.08185547 -5.60765625 13.26136719 -5.296875 12.41601562 C-4.84054688 11.18915039 -4.84054688 11.18915039 -4.375 9.9375 C-4.06304687 9.08478516 -3.75109375 8.23207031 -3.4296875 7.35351562 C-1.1279729 1.1279729 -1.1279729 1.1279729 0 0 Z " fill="#F7F7F7" transform="translate(256,158)"/>
<path d="M0 0 C2.31 0 4.62 0 7 0 C6.93840719 8.00717137 6.86103334 16.01397766 6.76428509 24.02079391 C6.71982543 27.73991419 6.68051808 31.45893105 6.65356445 35.17822266 C6.62728468 38.77703605 6.58671525 42.37544609 6.53681374 45.97400665 C6.51235554 47.99427581 6.50216466 50.01470182 6.49235535 52.03509521 C6.37041462 59.79972003 6.07322848 67.74962006 3 75 C1.515 75.495 1.515 75.495 0 76 C0.32145996 74.83090088 0.64291992 73.66180176 0.97412109 72.45727539 C2.48802514 65.60366912 2.35732038 58.66584014 2.4140625 51.68359375 C2.43280551 50.21670989 2.45238118 48.74983646 2.4727478 47.28297424 C2.52374457 43.45102122 2.56354231 39.61903337 2.60089111 35.78692627 C2.6411361 31.86502701 2.69213417 27.94326855 2.7421875 24.02148438 C2.83856164 16.34775338 2.92308758 8.67395338 3 1 C2.01 0.67 1.02 0.34 0 0 Z " fill="#E0E0E0" transform="translate(947,137)"/>
<path d="M0 0 C1.65 0 3.3 0 5 0 C4.91549811 8.76262511 4.82057677 17.52505815 4.71247292 26.28742409 C4.66259693 30.3564579 4.61626636 34.42546684 4.578125 38.49462891 C4.54116199 42.42400431 4.49477265 46.35316718 4.44193649 50.28236008 C4.42345092 51.77896763 4.40832156 53.27562065 4.39665604 54.77229691 C4.37969302 56.87397117 4.35063538 58.97516485 4.31884766 61.07666016 C4.30552399 62.27134918 4.29220032 63.46603821 4.2784729 64.69692993 C3.99294103 68.08372908 3.20836028 70.83470938 2 74 C1.01 74 0.02 74 -1 74 C-0.83734146 73.15279388 -0.67468292 72.30558777 -0.50709534 71.43270874 C0.01154297 67.92186154 0.12011943 64.62425278 0.11352539 61.07666016 C0.11374443 60.08048172 0.11374443 60.08048172 0.1139679 59.06417847 C0.11327634 56.88910551 0.10551973 54.71412032 0.09765625 52.5390625 C0.09578938 51.02306159 0.09436675 49.50706008 0.09336853 47.99105835 C0.08956456 44.01595369 0.07975253 40.04088602 0.06866455 36.0657959 C0.0584047 32.00350444 0.05386114 27.94120696 0.04882812 23.87890625 C0.03812822 15.91925393 0.02107746 7.95963158 0 0 Z " fill="#EEEEEE" transform="translate(618,137)"/>
<path d="M0 0 C0.99 0.33 1.98 0.66 3 1 C2.64550781 1.90492188 2.29101562 2.80984375 1.92578125 3.7421875 C1.38796719 5.11977073 0.85021325 6.49737742 0.3125 7.875 C-0.13367676 9.01388672 -0.13367676 9.01388672 -0.58886719 10.17578125 C-2.5622986 15.23546687 -4.49561311 20.30869276 -6.39509583 25.39651489 C-7.54983169 28.48742293 -8.71193398 31.57554316 -9.87417603 34.66363525 C-10.45823751 36.22168882 -11.03878435 37.78106442 -11.61581421 39.34173584 C-12.43813708 41.56459161 -13.27251248 43.78258467 -14.109375 46 C-14.35607437 46.67636505 -14.60277374 47.3527301 -14.85694885 48.04959106 C-16.19102523 51.54669765 -16.7905484 52.8603656 -20 55 C-19.25351774 50.12245182 -17.50358584 45.70241425 -15.76171875 41.11328125 C-15.43967972 40.25623093 -15.11764069 39.3991806 -14.7858429 38.51615906 C-14.10421513 36.7041909 -13.42075731 34.89291025 -12.7355957 33.08227539 C-11.6981965 30.34076736 -10.66595902 27.59736315 -9.63476562 24.85351562 C-8.96905327 23.08582326 -8.30304682 21.31824162 -7.63671875 19.55078125 C-7.33239426 18.7431282 -7.02806976 17.93547516 -6.71452332 17.10334778 C-4.54551102 11.37398896 -2.2922495 5.6811179 0 0 Z " fill="#E5E4E4" transform="translate(254,139)"/>
<path d="M0 0 C0.33 0 0.66 0 1 0 C0.85865273 2.89611544 0.7120847 5.7918081 0.5625 8.6875 C0.52318359 9.50412109 0.48386719 10.32074219 0.44335938 11.16210938 C0.40146484 11.95810547 0.35957031 12.75410156 0.31640625 13.57421875 C0.27974854 14.30213623 0.24309082 15.03005371 0.20532227 15.7800293 C-0.01938776 18.20962294 -0.52148387 20.60741935 -1 23 C-5.95 23 -10.9 23 -16 23 C-16 22.34 -16 21.68 -16 21 C-12.7 20.34 -9.4 19.68 -6 19 C-5.65066406 17.71222656 -5.30132812 16.42445313 -4.94140625 15.09765625 C-4.48194678 13.41922266 -4.02230178 11.74083985 -3.5625 10.0625 C-3.33240234 9.21236328 -3.10230469 8.36222656 -2.86523438 7.48632812 C-2.64287109 6.67744141 -2.42050781 5.86855469 -2.19140625 5.03515625 C-1.98717041 4.2862915 -1.78293457 3.53742676 -1.57250977 2.76586914 C-1 1 -1 1 0 0 Z " fill="#F5F5F5" transform="translate(406,205)"/>
<path d="M0 0 C0.66 0.33 1.32 0.66 2 1 C0.68 4.96 -0.64 8.92 -2 13 C1.3 13.33 4.6 13.66 8 14 C8 14.33 8 14.66 8 15 C1.73 15 -4.54 15 -11 15 C-10.34 14.34 -9.68 13.68 -9 13 C-8.01 13 -7.02 13 -6 13 C-5.72736328 11.96939453 -5.72736328 11.96939453 -5.44921875 10.91796875 C-5.19785156 10.01691406 -4.94648438 9.11585938 -4.6875 8.1875 C-4.44386719 7.29417969 -4.20023438 6.40085938 -3.94921875 5.48046875 C-2.9799181 2.94752262 -2.04990396 1.7283504 0 0 Z " fill="#C6C5C6" transform="translate(227,214)"/>
<path d="M0 0 C0.33 0.99 0.66 1.98 1 3 C-2.42652673 9.30480919 -7.09218019 13.76511712 -14 16 C-13.875 14.25 -13.875 14.25 -13 12 C-11.02053408 10.63636792 -9.0180755 9.30581356 -7 8 C-5.61423077 6.37667033 -4.27358732 4.71275535 -3 3 C-2.01769502 1.9826127 -1.02530403 0.97403883 0 0 Z " fill="#EEEDED" transform="translate(618,210)"/>
<path d="M0 0 C1.33727591 4.01182774 0.25593062 5.72169707 -1.25 9.625 C-1.68828125 10.79289063 -2.1265625 11.96078125 -2.578125 13.1640625 C-4 16 -4 16 -7 17 C-6.33961404 13.26915971 -5.33952078 9.81602029 -4.0625 6.25 C-3.72347656 5.28578125 -3.38445312 4.3215625 -3.03515625 3.328125 C-2 1 -2 1 0 0 Z " fill="#F0F0F0" transform="translate(233,198)"/>
<path d="M0 0 C1.32 0.33 2.64 0.66 4 1 C-1.96583144 9.6309795 -1.96583144 9.6309795 -7 12 C-5.62567077 7.99153975 -3.7110562 5.23577676 -1 2 C-0.67 1.34 -0.34 0.68 0 0 Z " fill="#E7E7E7" transform="translate(946,212)"/>
<path d="M0 0 C0.33 0 0.66 0 1 0 C0.67 5.94 0.34 11.88 0 18 C-0.33 18 -0.66 18 -1 18 C-1.144375 17.0925 -1.28875 16.185 -1.4375 15.25 C-1.88909955 12.18884163 -1.88909955 12.18884163 -2.625 10.0625 C-3.09383062 7.48393157 -2.56240855 6.14978052 -1.5625 3.75 C-1.27503906 3.04359375 -0.98757813 2.3371875 -0.69140625 1.609375 C-0.46324219 1.07828125 -0.23507812 0.5471875 0 0 Z " fill="#D2D1D1" transform="translate(406,205)"/>
<path d="M0 0 C-2 2 -2 2 -3.87939453 2.13525391 C-4.62302246 2.08288574 -5.36665039 2.03051758 -6.1328125 1.9765625 C-6.93847656 1.925 -7.74414062 1.8734375 -8.57421875 1.8203125 C-9.41597656 1.75585938 -10.25773438 1.69140625 -11.125 1.625 C-11.97449219 1.56828125 -12.82398438 1.5115625 -13.69921875 1.453125 C-15.8001345 1.31149023 -17.90017334 1.15695674 -20 1 C-20 0.67 -20 0.34 -20 0 C-17.22949974 -0.1946838 -14.45886998 -0.38102792 -11.6875 -0.5625 C-10.90181641 -0.61857422 -10.11613281 -0.67464844 -9.30664062 -0.73242188 C-8.1706543 -0.80493164 -8.1706543 -0.80493164 -7.01171875 -0.87890625 C-6.31522217 -0.9260376 -5.61872559 -0.97316895 -4.90112305 -1.02172852 C-3 -1 -3 -1 0 0 Z " fill="#DBDBDB" transform="translate(1032,226)"/>
<path d="M0 0 C-0.33 0.66 -0.66 1.32 -1 2 C-6.94 1.67 -12.88 1.34 -19 1 C-19 0.67 -19 0.34 -19 0 C-16.39619004 -0.19476139 -13.79224467 -0.38108614 -11.1875 -0.5625 C-10.44951172 -0.61857422 -9.71152344 -0.67464844 -8.95117188 -0.73242188 C-5.63211484 -0.95769724 -3.18767436 -1.06255812 0 0 Z " fill="#D7D6D6" transform="translate(701,226)"/>
<path d="M0 0 C1.2077558 3.62326739 0.54311128 4.64146369 -1 8 C-1.99 8 -2.98 8 -4 8 C-3.40138258 5.64828869 -2.73075648 3.3140622 -2 1 C-1.34 0.67 -0.68 0.34 0 0 Z " fill="#E6E6E6" transform="translate(233,198)"/>
<path d="M0 0 C0.66 0.33 1.32 0.66 2 1 C1.34 2.98 0.68 4.96 0 7 C-0.99 6.67 -1.98 6.34 -3 6 C-2.625 3.5625 -2.625 3.5625 -2 1 C-1.34 0.67 -0.68 0.34 0 0 Z " fill="#E5E4E4" transform="translate(227,214)"/>
<path d="M0 0 C0.33 0 0.66 0 1 0 C0.67 2.31 0.34 4.62 0 7 C-0.99 7.33 -1.98 7.66 -3 8 C-2.45276317 4.62537285 -1.9451 2.91765 0 0 Z " fill="#F2F2F2" transform="translate(950,205)"/>
<path d="M0 0 C1.125 1.6875 1.125 1.6875 2 4 C1.125 6.75 1.125 6.75 0 9 C-0.66 8.67 -1.32 8.34 -2 8 C-1.47731534 5.23723823 -0.89130413 2.6739124 0 0 Z " fill="#DCDCDC" transform="translate(247,157)"/>
</svg>
