<svg id="Layer_1" data-name="Layer 1" xmlns="http://www.w3.org/2000/svg" viewBox="0 0 1600 1600"><text transform="translate(546.62 1179.73)" style="font-size:168.7169189453125px;fill:#fff;stroke:#231f20;stroke-miterlimit:10;stroke-width:9px;font-family:OpenSans-Extrabold, Open Sans;font-weight:800">ALHUDHUD</text><path d="M25.25,368.31c9.73,1.13,18.3,2.06,26.86,3.14,13.73,1.72,27.44,3.57,41.16,5.31q39.83,5,79.64,10c22.64,2.81,45.3,5.5,67.94,8.27,25.2,3.07,50.41,6.11,75.6,9.28,33,4.15,66,8.49,99.06,12.61,30.47,3.81,61,7.42,91.44,11.14q33.72,4.13,67.41,8.33a3.93,3.93,0,0,1,2.44.9c14.5,19.1,28.79,38.37,43.42,57.37,25.33,32.93,50.87,65.71,76.32,98.54.93,1.2,1.93,2.33,3.27,3.94l17.6-13.74q84.62-66,169.22-132c5.22-4.08,5.07-4,9.32,1.41q37.75,48.15,75.62,96.22,31.77,40.37,63.57,80.72c.9,1.14,1.62,2.43,3.09,4.68L874.71,614.33c-.83,6.72-1.63,12.73-2.31,18.75q-3.54,31.26-7,62.55c-2,18.29-4,36.59-6,54.88q-2.57,23.1-5.27,46.2a4.65,4.65,0,0,1-1.43,2.95c-7.85,6-15.91,11.63-23.69,17.68q-76,59.13-152,118.38c-46.21,36-92.29,72.19-138.67,108-48,37-96.22,73.61-144.34,110.4q-20.31,15.53-40.59,31.09c-.68.52-1.46.9-3,1.84.83-8,1.49-15.18,2.35-22.33,1.73-14.18,3.61-28.33,5.35-42.51q5-40.74,10-81.51c2.8-23.25,5.42-46.52,8.24-69.77,3.34-27.62,6.83-55.22,10.19-82.83,1.87-15.4,3.74-30.79,5.28-46.22a11.32,11.32,0,0,0-2.13-7.41c-33.43-42.64-67.08-85.12-100.55-127.72q-44-56-87.77-112.26Q156.65,537.23,112,480,70.16,426.32,28.28,372.7C27.46,371.65,26.75,370.5,25.25,368.31Zm244.68,309,278.9,354.42,301.6-235L574,440.16ZM31.72,372.07,268.11,675l302.44-235.8Zm514.9,661.5L395,840.77,354.2,1179.23l1.27.5ZM701.48,599.81q74.88,96.57,149.07,192.25l1.07-.53c12.64-112.42,25.28-224.85,38-338.5Zm330.35,30.82-138.42-176-1.15.61c-5.84,51.88-11.68,103.75-17.57,156Z" style="stroke:#231f20;stroke-miterlimit:10;stroke-width:8px"/><path d="M269.93,677.27,574,440.16,850.43,796.72l-301.6,235Z" style="fill:#fff;stroke:#231f20;stroke-miterlimit:10;stroke-width:8px"/><path d="M31.72,372.07l538.83,67.08L268.11,675Z" style="fill:#fff;stroke:#231f20;stroke-miterlimit:10;stroke-width:8px"/><path d="M546.62,1033.57,355.47,1179.73l-1.27-.5L395,840.77Z" style="fill:#fff;stroke:#231f20;stroke-miterlimit:10;stroke-width:8px"/><path d="M701.48,599.81,889.67,453c-12.77,113.65-25.41,226.08-38,338.5l-1.07.53Q776.2,696.15,701.48,599.81Z" style="fill:#fff;stroke:#231f20;stroke-miterlimit:10;stroke-width:8px"/><path d="M1031.83,630.63,874.69,611.25c5.89-52.23,11.73-104.1,17.57-156l1.15-.61Z" style="fill:#fff;stroke:#231f20;stroke-miterlimit:10;stroke-width:8px"/></svg>