<?xml version="1.0" encoding="UTF-8"?>
<svg version="1.1" xmlns="http://www.w3.org/2000/svg" width="319" height="151">
<path d="M0 0 C105.27 0 210.54 0 319 0 C319 49.83 319 99.66 319 151 C213.73 151 108.46 151 0 151 C0 101.17 0 51.34 0 0 Z " fill="#FEFEFE" transform="translate(0,0)"/>
<path d="M0 0 C5.59116229 0.54772902 11.18116969 1.10608083 16.77044678 1.67272949 C18.97285058 1.89591263 21.1753706 2.11795118 23.37799072 2.33898926 C30.74967435 3.0825919 38.11491346 3.8714383 45.47729492 4.70214844 C48.05595688 4.9864595 50.63612424 5.2574038 53.2175293 5.515625 C56.9997803 5.89620494 60.77451522 6.3222657 64.55078125 6.7578125 C65.69871658 6.86336456 66.84665192 6.96891663 68.02937317 7.07766724 C73.72171873 7.78166239 77.21420971 8.52446491 81.09863281 12.91357422 C82.09322644 14.25578876 83.0621044 15.61757163 84 17 C84.95016757 18.21373796 85.90608485 19.42302825 86.87109375 20.625 C87.72937094 21.74785888 88.58489539 22.8728278 89.4375 24 C90.10555664 24.87591797 90.10555664 24.87591797 90.78710938 25.76953125 C91.86059924 27.17776527 92.93068644 28.58859217 94 30 C99.99484364 26.71797449 105.16149241 22.24199518 110.49414062 18.00585938 C111.65913086 17.08836914 111.65913086 17.08836914 112.84765625 16.15234375 C113.54898682 15.59538818 114.25031738 15.03843262 114.97290039 14.46459961 C116.91557016 13.0610014 118.8276639 12.00221818 121 11 C128.28532365 19.46260979 135.27431784 28.08591801 142 37 C137.97417334 38.49260414 134.07322873 37.69826933 129.9375 37.125 C128.85758789 36.98771484 128.85758789 36.98771484 127.75585938 36.84765625 C124.70993685 36.44605829 121.92150456 35.97383485 119 35 C118.92483154 35.86165771 118.92483154 35.86165771 118.84814453 36.74072266 C118.61455437 39.36953886 118.36987042 41.99721151 118.125 44.625 C118.04636719 45.52863281 117.96773438 46.43226562 117.88671875 47.36328125 C116.76422116 59.19267898 116.76422116 59.19267898 112.6015625 63.45703125 C111.61929688 64.23433594 110.63703125 65.01164062 109.625 65.8125 C109.09116699 66.23990479 108.55733398 66.66730957 108.00732422 67.10766602 C103.45124731 70.72832296 98.78487548 74.20764407 94.109375 77.671875 C90.82575789 80.13046269 87.59463635 82.64618875 84.375 85.1875 C72.02262201 94.93088079 59.64017146 104.63140233 47 114 C46.01 113.505 46.01 113.505 45 113 C45.15146484 111.79988281 45.30292969 110.59976563 45.45898438 109.36328125 C46.02303169 104.88358798 46.58057918 100.40310506 47.13623047 95.92236328 C47.37698791 93.98822467 47.61947534 92.05430055 47.86376953 90.12060547 C48.21588875 87.3309589 48.56164853 84.54058399 48.90625 81.75 C49.07030334 80.466698 49.07030334 80.466698 49.2376709 79.1574707 C50.73510074 69.83692106 50.73510074 69.83692106 48.26953125 61.19140625 C47.05330078 59.89009766 47.05330078 59.89009766 45.8125 58.5625 C44.88557481 57.53200494 43.96260769 56.49794019 43.04296875 55.4609375 C42.54845215 54.90889648 42.05393555 54.35685547 41.54443359 53.78808594 C38.74425151 50.54614259 36.20014996 47.10883121 33.625 43.6875 C29.48965405 38.23010475 25.29962821 32.82894609 21 27.5 C16.54688311 21.97536118 12.18525514 16.38685589 7.875 10.75 C7.318125 10.02232422 6.76125 9.29464844 6.1875 8.54492188 C4.04518368 5.73379784 1.96167829 2.94251743 0 0 Z " fill="#403D3E" transform="translate(12,14)"/>
<path d="M0 0 C0.99 0 1.98 0 3 0 C4.658168 1.85897367 6.10598428 3.67897277 7.5625 5.6875 C8.46462448 6.89599704 9.36697409 8.10432606 10.26953125 9.3125 C10.72666504 9.93125 11.18379883 10.55 11.65478516 11.1875 C13.65313574 13.88001447 15.70155244 16.53298283 17.75 19.1875 C18.14582275 19.70328613 18.54164551 20.21907227 18.94946289 20.75048828 C21.50362037 24.07611573 24.08135373 27.38229737 26.671875 30.6796875 C27.62175293 31.89168823 27.62175293 31.89168823 28.59082031 33.12817383 C29.84244018 34.72406919 31.0969009 36.31774152 32.35449219 37.90893555 C32.92844727 38.64152588 33.50240234 39.37411621 34.09375 40.12890625 C34.86235352 41.10452515 34.86235352 41.10452515 35.64648438 42.09985352 C36.99692992 43.99569004 38.01911426 45.89279289 39 48 C25.85089571 58.58475615 12.53061374 68.90689354 -1 79 C-4.69646829 75.44239724 -7.93521623 71.69480032 -11.0625 67.625 C-12.03057897 66.37838486 -12.99935336 65.13230952 -13.96875 63.88671875 C-14.46632813 63.24653809 -14.96390625 62.60635742 -15.4765625 61.94677734 C-17.97562095 58.753269 -20.52069949 55.59701095 -23.0625 52.4375 C-28.47350446 45.6995174 -33.76148971 38.87264735 -39 32 C-35.13263247 27.98474079 -31.02479314 24.43547118 -26.6875 20.9375 C-25.65375244 20.09964966 -25.65375244 20.09964966 -24.59912109 19.24487305 C-18.85311836 14.61907429 -12.98740523 10.16435253 -7.0534668 5.78295898 C-3.37886443 3.06713512 -3.37886443 3.06713512 0 0 Z " fill="#FDFDFD" transform="translate(87,26)"/>
<path d="M0 0 C7.63280988 0.36647597 15.08814539 1.10042342 22.625 2.3125 C32.79571545 3.93923424 43.01374942 5.0679843 53.25 6.1875 C54.49030975 6.32316879 54.49030975 6.32316879 55.75567627 6.46157837 C60.5032322 6.97958038 65.25136459 7.49199381 70 8 C68.72321104 11.83036687 66.44155046 13.20298016 63.3125 15.5 C62.12568525 16.39110615 60.93950935 17.28306366 59.75390625 18.17578125 C58.82795654 18.86921631 58.82795654 18.86921631 57.88330078 19.57666016 C54.80458831 21.90345478 51.7790846 24.29670603 48.75 26.6875 C48.16404053 27.14608398 47.57808105 27.60466797 46.97436523 28.07714844 C44.37223239 30.11484401 41.79722955 32.16897537 39.2578125 34.28515625 C38.47148438 34.93355469 37.68515625 35.58195312 36.875 36.25 C36.21242187 36.81203125 35.54984375 37.3740625 34.8671875 37.953125 C33 39 33 39 31.05908203 38.75512695 C28.63729805 37.86698635 27.7811636 36.97156245 26.1875 34.96484375 C25.67501709 34.32788574 25.16253418 33.69092773 24.63452148 33.03466797 C24.09512939 32.34260254 23.5557373 31.65053711 23 30.9375 C22.43547119 30.2273877 21.87094238 29.51727539 21.28930664 28.78564453 C13.89309114 19.42842827 6.53037914 9.98763868 0 0 Z " fill="#FBFBFB" transform="translate(16,16)"/>
<path d="M0 0 C3 1 3 1 4.5 3.90625 C5.5 6.30208333 6.5 8.69791667 7.5 11.09375 C8.72461172 14.29597277 8.72461172 14.29597277 12 15 C12 10.71 12 6.42 12 2 C11.34 2 10.68 2 10 2 C10 1.34 10 0.68 10 0 C12.97 0 15.94 0 19 0 C19 0.66 19 1.32 19 2 C18.34 2 17.68 2 17 2 C17 5.96 17 9.92 17 14 C18.65 13.67 20.3 13.34 22 13 C22.33 12.01 22.66 11.02 23 10 C23.66 10 24.32 10 25 10 C25 11.65 25 13.3 25 15 C25.66 15 26.32 15 27 15 C27 10.71 27 6.42 27 2 C26.34 2 25.68 2 25 2 C25 1.34 25 0.68 25 0 C33.91 0 42.82 0 52 0 C51.67 4.62 51.34 9.24 51 14 C52.32 13.67 53.64 13.34 55 13 C55.33 9.37 55.66 5.74 56 2 C55.34 2 54.68 2 54 2 C54 1.34 54 0.68 54 0 C56.75026417 -0.05404449 59.49946203 -0.09369306 62.25 -0.125 C63.02730469 -0.14175781 63.80460937 -0.15851563 64.60546875 -0.17578125 C72.00475072 -0.23902298 72.00475072 -0.23902298 75 2 C77.34168764 5.51253146 77.49623677 6.86469356 77 11 C75.4375 13.875 75.4375 13.875 73 16 C70.69 16 68.38 16 66 16 C66 11.05 66 6.1 66 1 C65.01 1 64.02 1 63 1 C63 5.95 63 10.9 63 16 C62.01 15.67 61.02 15.34 60 15 C60.66 15 61.32 15 62 15 C62 10.71 62 6.42 62 2 C60.68 2 59.36 2 58 2 C58.05220703 3.24716797 58.05220703 3.24716797 58.10546875 4.51953125 C58.13253906 5.60621094 58.15960938 6.69289063 58.1875 7.8125 C58.23970703 9.43091797 58.23970703 9.43091797 58.29296875 11.08203125 C58 14 58 14 56.70703125 15.859375 C53.8086906 17.79602367 51.35846182 17.41980773 48 17 C45.69213 14.74494167 45.04507075 13.43027538 44.70703125 10.203125 C44.74183594 9.22859375 44.77664062 8.2540625 44.8125 7.25 C44.85310547 5.77273437 44.85310547 5.77273437 44.89453125 4.265625 C44.92933594 3.51796875 44.96414062 2.7703125 45 2 C43.68 2 42.36 2 41 2 C41 6.29 41 10.58 41 15 C41.66 15.33 42.32 15.66 43 16 C42.01 16 41.02 16 40 16 C40 11.05 40 6.1 40 1 C39.01 1 38.02 1 37 1 C37 5.95 37 10.9 37 16 C35.02 16 33.04 16 31 16 C31 11.05 31 6.1 31 1 C30.01 1 29.02 1 28 1 C28 5.95 28 10.9 28 16 C24.04 16 20.08 16 16 16 C16 11.05 16 6.1 16 1 C15.01 1 14.02 1 13 1 C13 5.95 13 10.9 13 16 C11.02 16 9.04 16 7 16 C5.35 12.04 3.7 8.08 2 4 C1.81022182 6.97652483 1.81022182 6.97652483 3 9.4375 C4 12 4 12 4 16 C3.34 15.67 2.68 15.34 2 15 C2 14.34 2 13.68 2 13 C0.35 12.67 -1.3 12.34 -3 12 C-3 12.99 -3 13.98 -3 15 C-2.34 15 -1.68 15 -1 15 C-1 15.66 -1 16.32 -1 17 C-3.31 17 -5.62 17 -8 17 C-8 16.34 -8 15.68 -8 15 C-7.56042969 14.59136719 -7.12085937 14.18273437 -6.66796875 13.76171875 C-4.40873422 11.37550148 -3.52300322 8.85511621 -2.3125 5.8125 C-1.87550781 4.72582031 -1.43851562 3.63914062 -0.98828125 2.51953125 C-0.66214844 1.68808594 -0.33601563 0.85664062 0 0 Z " fill="#633E32" transform="translate(92,110)"/>
<path d="M0 0 C4.09099571 3.91739257 7.6202228 8.11816283 11.125 12.5625 C11.91197266 13.5515332 11.91197266 13.5515332 12.71484375 14.56054688 C14.15018282 16.36834735 15.57580227 18.18342127 17 20 C17.92425781 21.15822266 17.92425781 21.15822266 18.8671875 22.33984375 C20 24 20 24 20 26 C18.64233398 27.24926758 18.64233398 27.24926758 16.74609375 28.64453125 C16.05580078 29.15693359 15.36550781 29.66933594 14.65429688 30.19726562 C13.92275391 30.73029297 13.19121094 31.26332031 12.4375 31.8125 C11.73302734 32.33392578 11.02855469 32.85535156 10.30273438 33.39257812 C8.20890369 34.93834621 6.10616107 36.47108675 4 38 C3.32211426 38.4954834 2.64422852 38.9909668 1.94580078 39.50146484 C-2.87963738 43 -2.87963738 43 -4 43 C-3.36026873 28.59501647 -1.67008352 14.3158994 0 0 Z " fill="#FAFAFA" transform="translate(64,81)"/>
<path d="M0 0 C-0.61678895 14.07980286 -2.29845775 28.01629999 -4 42 C-8.25936268 37.90877005 -12.01871013 33.51147444 -15.75 28.9375 C-16.33910156 28.23044922 -16.92820312 27.52339844 -17.53515625 26.79492188 C-18.09589844 26.10849609 -18.65664062 25.42207031 -19.234375 24.71484375 C-19.74194336 24.09730225 -20.24951172 23.47976074 -20.77246094 22.84350586 C-22.07345385 20.88968774 -22.57550303 19.29386759 -23 17 C-17.33651021 12.23730216 -11.66936683 7.47835505 -5.875 2.875 C-5.17117187 2.31554687 -4.46734375 1.75609375 -3.7421875 1.1796875 C-2 0 -2 0 0 0 Z " fill="#FBFBFB" transform="translate(131,29)"/>
<path d="M0 0 C8.91 0 17.82 0 27 0 C27 0.66 27 1.32 27 2 C26.34 2 25.68 2 25 2 C25 5.96 25 9.92 25 14 C26.65 13.67 28.3 13.34 30 13 C30.33 9.37 30.66 5.74 31 2 C30.01 2 29.02 2 28 2 C28 1.34 28 0.68 28 0 C30.72977064 -0.08126109 33.4571017 -0.14061663 36.1875 -0.1875 C36.95642578 -0.21263672 37.72535156 -0.23777344 38.51757812 -0.26367188 C43.2172263 -0.32418237 46.13604564 0.02137887 50 3 C51.87643761 4.87643761 51.17984987 7.49805701 51.23046875 9.9921875 C51 12 51 12 49 15 C48.34 14.67 47.68 14.34 47 14 C47.66 13.01 48.32 12.02 49 11 C48.68269476 7.36060068 48.68269476 7.36060068 48 4 C44.89459074 2.78918149 44.89459074 2.78918149 41 3 C41 2.34 41 1.68 41 1 C40.01 1 39.02 1 38 1 C38 5.95 38 10.9 38 16 C37.01 15.67 36.02 15.34 35 15 C35.66 15 36.32 15 37 15 C37 10.71 37 6.42 37 2 C35.68 2 34.36 2 33 2 C33.02320313 2.75925781 33.04640625 3.51851563 33.0703125 4.30078125 C33.08835938 5.29464844 33.10640625 6.28851563 33.125 7.3125 C33.14820313 8.29863281 33.17140625 9.28476563 33.1953125 10.30078125 C33 13 33 13 31 16 C29.16015625 16.6171875 29.16015625 16.6171875 27.0625 16.875 C26.02802734 17.02582031 26.02802734 17.02582031 24.97265625 17.1796875 C23 17 23 17 21.2578125 15.89453125 C19.4457457 13.16517597 19.70802864 11.05111216 19.8125 7.8125 C19.83957031 6.72582031 19.86664063 5.63914062 19.89453125 4.51953125 C19.92933594 3.68808594 19.96414062 2.85664062 20 2 C18.68 2 17.36 2 16 2 C16 6.29 16 10.58 16 15 C16.66 15.33 17.32 15.66 18 16 C17.01 16 16.02 16 15 16 C15 11.05 15 6.1 15 1 C14.01 1 13.02 1 12 1 C12 5.95 12 10.9 12 16 C10.02 16 8.04 16 6 16 C6 11.05 6 6.1 6 1 C5.01 1 4.02 1 3 1 C3 5.95 3 10.9 3 16 C2.01 15.67 1.02 15.34 0 15 C0.66 15 1.32 15 2 15 C2 10.71 2 6.42 2 2 C1.34 2 0.68 2 0 2 C0 1.34 0 0.68 0 0 Z " fill="#4C3746" transform="translate(169,110)"/>
<path d="M0 0 C17.71038913 1.63546728 35.35064908 3.81686999 53 6 C52.67 6.66 52.34 7.32 52 8 C42.20051715 7.43373623 32.58830759 6.35736883 22.875 4.9375 C20.33108232 4.56916723 17.78682459 4.20317321 15.2421875 3.83984375 C14.1372998 3.67863037 13.03241211 3.51741699 11.89404297 3.35131836 C8.82407332 2.91966071 8.82407332 2.91966071 5 3 C5.63164062 3.80179688 6.26328125 4.60359375 6.9140625 5.4296875 C13.04638979 13.2210356 19.14845158 21.03530336 25.22705078 28.86865234 C28.12506288 32.60082758 31.03474696 36.32075483 34 40 C37.39827023 39.38948105 39.39742357 38.157783 42.08203125 36.015625 C42.84966797 35.40976562 43.61730469 34.80390625 44.40820312 34.1796875 C45.20162109 33.54289062 45.99503906 32.90609375 46.8125 32.25 C48.38046943 31.00389734 49.94946564 29.75908548 51.51953125 28.515625 C52.27186035 27.91943359 53.02418945 27.32324219 53.79931641 26.70898438 C56.80281928 24.37655481 59.88430383 22.17973938 63 20 C63 20.99 63 21.98 63 23 C61.14123158 24.65798492 59.32096205 26.106301 57.3125 27.5625 C56.12739009 28.44632761 54.94250104 29.33045141 53.7578125 30.21484375 C53.14196289 30.66972168 52.52611328 31.12459961 51.89160156 31.59326172 C48.79307758 33.89755898 45.74249303 36.26348996 42.6875 38.625 C41.58746555 39.47164785 40.48722607 40.3180294 39.38671875 41.1640625 C38.59910156 41.76992188 37.81148437 42.37578125 37 43 C39.57871429 46.96099807 42.26943712 50.69897245 45.25 54.375 C45.95640625 55.24898437 46.6628125 56.12296875 47.390625 57.0234375 C47.92171875 57.67570312 48.4528125 58.32796875 49 59 C48.34 59.66 47.68 60.32 47 61 C46.40574219 60.22398438 45.81148437 59.44796875 45.19921875 58.6484375 C40.30199369 52.2626242 35.36948763 45.90683976 30.3894043 39.58544922 C25.97537445 33.97874927 21.59661466 28.34491859 17.22094727 22.70825195 C14.392281 19.06680906 11.55688994 15.43124221 8.69921875 11.8125 C7.93448242 10.84376953 7.93448242 10.84376953 7.15429688 9.85546875 C6.20014759 8.64848896 5.24449719 7.44269382 4.28710938 6.23828125 C1.10926107 2.21852214 1.10926107 2.21852214 0 0 Z " fill="#4C4949" transform="translate(12,14)"/>
<path d="M0 0 C0.99 0 1.98 0 3 0 C3 4.95 3 9.9 3 15 C6.465 14.505 6.465 14.505 10 14 C12.475 14.495 12.475 14.495 15 15 C15 10.05 15 5.1 15 0 C15.99 0 16.98 0 18 0 C18 4.95 18 9.9 18 15 C19.98 15 21.96 15 24 15 C24 10.05 24 5.1 24 0 C24.99 0 25.98 0 27 0 C27 4.95 27 9.9 27 15 C28.32 14.67 29.64 14.34 31 14 C31 14.66 31 15.32 31 16 C16.81 16 2.62 16 -12 16 C-11.67 15.34 -11.34 14.68 -11 14 C-10.34 14.33 -9.68 14.66 -9 15 C-10.32 11.04 -11.64 7.08 -13 3 C-12.01 3 -11.02 3 -10 3 C-9.32645501 4.43429001 -8.66140299 5.87257057 -8 7.3125 C-7.62875 8.11300781 -7.2575 8.91351563 -6.875 9.73828125 C-6 12 -6 12 -6 15 C-4.02 15 -2.04 15 0 15 C0 10.05 0 5.1 0 0 Z " fill="#B0BDC5" transform="translate(105,111)"/>
<path d="M0 0 C3.94987108 3.79129961 7.38198567 7.81285228 10.75 12.125 C11.24371094 12.74503906 11.73742187 13.36507812 12.24609375 14.00390625 C14.32010354 16.6461379 15.92964479 18.78893436 17 22 C10.73 21.34 4.46 20.68 -2 20 C-1.0625 5.80357143 -1.0625 5.80357143 0 0 Z " fill="#F9F9F9" transform="translate(133,28)"/>
<path d="M0 0 C3 1 3 1 4.5 3.90625 C5.5 6.30208333 6.5 8.69791667 7.5 11.09375 C8.72461172 14.29597277 8.72461172 14.29597277 12 15 C12 10.71 12 6.42 12 2 C11.34 2 10.68 2 10 2 C10 1.34 10 0.68 10 0 C12.97 0 15.94 0 19 0 C19 0.66 19 1.32 19 2 C18.34 2 17.68 2 17 2 C17 5.96 17 9.92 17 14 C18.65 13.67 20.3 13.34 22 13 C22.33 12.01 22.66 11.02 23 10 C23.66 10 24.32 10 25 10 C25 11.65 25 13.3 25 15 C25.99 15.33 26.98 15.66 28 16 C24.04 16 20.08 16 16 16 C16 11.05 16 6.1 16 1 C15.01 1 14.02 1 13 1 C13 5.95 13 10.9 13 16 C11.02 16 9.04 16 7 16 C5.35 12.04 3.7 8.08 2 4 C1.81022182 6.97652483 1.81022182 6.97652483 3 9.4375 C4 12 4 12 4 16 C3.34 15.67 2.68 15.34 2 15 C2 14.34 2 13.68 2 13 C0.35 12.67 -1.3 12.34 -3 12 C-3 12.99 -3 13.98 -3 15 C-2.34 15 -1.68 15 -1 15 C-1 15.66 -1 16.32 -1 17 C-3.31 17 -5.62 17 -8 17 C-8 16.34 -8 15.68 -8 15 C-7.56042969 14.59136719 -7.12085937 14.18273437 -6.66796875 13.76171875 C-4.40873422 11.37550148 -3.52300322 8.85511621 -2.3125 5.8125 C-1.87550781 4.72582031 -1.43851562 3.63914062 -0.98828125 2.51953125 C-0.66214844 1.68808594 -0.33601563 0.85664062 0 0 Z " fill="#695B69" transform="translate(92,110)"/>
<path d="M0 0 C0.99 0 1.98 0 3 0 C3 0.66 3 1.32 3 2 C4.98 1.67 6.96 1.34 9 1 C10.5625 2.5625 10.5625 2.5625 12 5 C11.93353206 8.72220466 11.45589815 11.19181691 9.625 14.4375 C5.36229867 16.97482222 0.83900966 16.30035232 -4 16 C-3.67 15.34 -3.34 14.68 -3 14 C-2.01 14.33 -1.02 14.66 0 15 C0 10.05 0 5.1 0 0 Z " fill="#9D9695" transform="translate(207,111)"/>
<path d="M0 0 C20.79411765 -0.74264706 20.79411765 -0.74264706 27.234375 3.45703125 C29.06570662 5.52818011 30.50088794 7.67549447 32 10 C33.32349667 11.75304804 34.67751842 13.47990406 36.03369141 15.20776367 C38.05125181 17.78357427 40.02418428 20.39208227 42 23 C45.32610276 21.06978664 48.40049427 19.0168786 51.42578125 16.64453125 C52.22177734 16.02255859 53.01777344 15.40058594 53.83789062 14.75976562 C55.06282227 13.79586914 55.06282227 13.79586914 56.3125 12.8125 C57.14845703 12.15830078 57.98441406 11.50410156 58.84570312 10.83007812 C60.89911483 9.2225501 62.95046321 7.61246345 65 6 C65.99 6.495 65.99 6.495 67 7 C61.87319515 11.74262567 56.57695682 16.21840336 51.0625 20.5 C50.4950708 20.94520996 49.9276416 21.39041992 49.34301758 21.84912109 C45.24094161 25 45.24094161 25 43 25 C42.67 25.66 42.34 26.32 42 27 C33.015625 15.76953125 33.015625 15.76953125 31.45507812 13.81103516 C30.19134716 12.23815659 28.90250546 10.68551717 27.609375 9.13671875 C26 7 26 7 26 5 C21.36291061 7.60836278 17.21255542 10.77002574 13 14 C12.34 13.67 11.68 13.34 11 13 C11.71027344 12.44570313 12.42054687 11.89140625 13.15234375 11.3203125 C14.07144531 10.59585937 14.99054688 9.87140625 15.9375 9.125 C16.85402344 8.40570313 17.77054688 7.68640625 18.71484375 6.9453125 C21.06009485 5.20579164 21.06009485 5.20579164 22 3 C20.91460937 2.93941406 19.82921875 2.87882812 18.7109375 2.81640625 C17.26561514 2.73193936 15.82030318 2.64729449 14.375 2.5625 C13.30572266 2.50352539 13.30572266 2.50352539 12.21484375 2.44335938 C8.08196318 2.19690319 4.07730976 1.76529947 0 1 C0 0.67 0 0.34 0 0 Z " fill="#3F3C3D" transform="translate(64,21)"/>
<path d="M0 0 C3.65316671 1.24976756 4.78065836 1.67098753 7 5 C7.4375 7.875 7.4375 7.875 7 11 C4.5 13.875 4.5 13.875 2 16 C1.34 15.34 0.68 14.68 0 14 C-0.99 14 -1.98 14 -3 14 C-3 10.37 -3 6.74 -3 3 C-2.01 3 -1.02 3 0 3 C0 2.01 0 1.02 0 0 Z " fill="#6A5E6B" transform="translate(162,110)"/>
<path d="M0 0 C2.72977064 -0.08126109 5.4571017 -0.14061663 8.1875 -0.1875 C9.34088867 -0.22520508 9.34088867 -0.22520508 10.51757812 -0.26367188 C15.2172263 -0.32418237 18.13604564 0.02137887 22 3 C23.87643761 4.87643761 23.17984987 7.49805701 23.23046875 9.9921875 C23 12 23 12 21 15 C20.34 14.67 19.68 14.34 19 14 C19.66 13.01 20.32 12.02 21 11 C20.68269476 7.36060068 20.68269476 7.36060068 20 4 C16.89459074 2.78918149 16.89459074 2.78918149 13 3 C13 2.34 13 1.68 13 1 C12.01 1 11.02 1 10 1 C10 5.95 10 10.9 10 16 C9.01 15.67 8.02 15.34 7 15 C7.66 15 8.32 15 9 15 C9 10.71 9 6.42 9 2 C7.68 2 6.36 2 5 2 C5.02320313 2.75925781 5.04640625 3.51851563 5.0703125 4.30078125 C5.09738281 5.79158203 5.09738281 5.79158203 5.125 7.3125 C5.14820313 8.29863281 5.17140625 9.28476563 5.1953125 10.30078125 C5 13 5 13 3 16 C-0.625 16.6875 -0.625 16.6875 -4 17 C-2 15 -2 15 0.078125 14.2265625 C2.28873247 13.13039357 2.28873247 13.13039357 2.609375 10.3984375 C2.65578125 9.40070313 2.7021875 8.40296875 2.75 7.375 C2.80671875 6.37210937 2.8634375 5.36921875 2.921875 4.3359375 C2.94765625 3.56507812 2.9734375 2.79421875 3 2 C2.01 2 1.02 2 0 2 C0 1.34 0 0.68 0 0 Z " fill="#3C4261" transform="translate(197,110)"/>
<path d="M0 0 C5.28 0 10.56 0 16 0 C16 0.99 16 1.98 16 3 C15.01 3 14.02 3 13 3 C13 6.63 13 10.26 13 14 C14.32 13.67 15.64 13.34 17 13 C17.33 13.99 17.66 14.98 18 16 C16.02 16 14.04 16 12 16 C12 11.05 12 6.1 12 1 C11.01 1 10.02 1 9 1 C9 5.95 9 10.9 9 16 C8.01 15.67 7.02 15.34 6 15 C6.66 15 7.32 15 8 15 C8 10.71 8 6.42 8 2 C6.68 2 5.36 2 4 2 C4.03480469 2.83144531 4.06960937 3.66289063 4.10546875 4.51953125 C4.13253906 5.60621094 4.15960938 6.69289063 4.1875 7.8125 C4.22230469 8.89144531 4.25710937 9.97039062 4.29296875 11.08203125 C4 14 4 14 2.6875 15.875 C0.1654793 17.55634713 -2.05224987 17.19651668 -5 17 C-3 15.66666667 -1 14.33333333 1 13 C1.58348752 10.3443272 1.58348752 10.3443272 1.6875 7.375 C1.75324219 6.37210937 1.81898438 5.36921875 1.88671875 4.3359375 C1.92410156 3.56507812 1.96148437 2.79421875 2 2 C1.34 2 0.68 2 0 2 C0 1.34 0 0.68 0 0 Z " fill="#45313D" transform="translate(146,110)"/>
<path d="M0 0 C0.99 0 1.98 0 3 0 C3 4.95 3 9.9 3 15 C4.98 15 6.96 15 9 15 C9 10.05 9 5.1 9 0 C9.99 0 10.98 0 12 0 C12 4.95 12 9.9 12 15 C12.99 15.33 13.98 15.66 15 16 C9.06 16 3.12 16 -3 16 C-2.01 15.67 -1.02 15.34 0 15 C0 10.05 0 5.1 0 0 Z " fill="#BDC3C1" transform="translate(172,111)"/>
<path d="M0 0 C0.99 0 1.98 0 3 0 C3 4.95 3 9.9 3 15 C6.465 14.505 6.465 14.505 10 14 C10.33 14.66 10.66 15.32 11 16 C3.41 16 -4.18 16 -12 16 C-11.67 15.34 -11.34 14.68 -11 14 C-10.34 14.33 -9.68 14.66 -9 15 C-10.32 11.04 -11.64 7.08 -13 3 C-12.01 3 -11.02 3 -10 3 C-9.32645501 4.43429001 -8.66140299 5.87257057 -8 7.3125 C-7.62875 8.11300781 -7.2575 8.91351563 -6.875 9.73828125 C-6 12 -6 12 -6 15 C-4.02 15 -2.04 15 0 15 C0 10.05 0 5.1 0 0 Z " fill="#B5B6B0" transform="translate(105,111)"/>
<path d="M0 0 C0.66 0.66 1.32 1.32 2 2 C1.95166016 4.6862793 1.95166016 4.6862793 1.5390625 8.07421875 C1.39726563 9.29947266 1.25546875 10.52472656 1.109375 11.78710938 C0.94953125 13.07423828 0.7896875 14.36136719 0.625 15.6875 C0.32213111 18.21183519 0.02255092 20.73656755 -0.2734375 23.26171875 C-0.41185059 24.38537842 -0.55026367 25.50903809 -0.69287109 26.66674805 C-1.01197426 30.1299559 -1.05126561 33.52413631 -1 37 C0.65 36.01 2.3 35.02 4 34 C4 34.99 4 35.98 4 37 C2.46875 38.38671875 2.46875 38.38671875 0.5 39.6875 C-0.1496875 40.12449219 -0.799375 40.56148437 -1.46875 41.01171875 C-2.22671875 41.50091797 -2.22671875 41.50091797 -3 42 C-3.66 41.67 -4.32 41.34 -5 41 C-3.35 27.47 -1.7 13.94 0 0 Z " fill="#4F4C4D" transform="translate(62,86)"/>
<path d="M0 0 C1.65 0.33 3.3 0.66 5 1 C5 4.96 5 8.92 5 13 C5.99 13.33 6.98 13.66 8 14 C6.02 14.66 4.04 15.32 2 16 C-0.93225176 12.75137371 -1.3657394 10.64694038 -1.25 6.3125 C-1.23453125 5.33925781 -1.2190625 4.36601563 -1.203125 3.36328125 C-1 1 -1 1 0 0 Z " fill="#A1A7AD" transform="translate(138,111)"/>
<path d="M0 0 C2.97 0 5.94 0 9 0 C9 0.66 9 1.32 9 2 C8.34 2 7.68 2 7 2 C7 5.96 7 9.92 7 14 C8.65 13.67 10.3 13.34 12 13 C12.33 12.01 12.66 11.02 13 10 C13.66 10 14.32 10 15 10 C15 11.65 15 13.3 15 15 C15.99 15.33 16.98 15.66 18 16 C14.04 16 10.08 16 6 16 C6 11.05 6 6.1 6 1 C5.01 1 4.02 1 3 1 C3 5.95 3 10.9 3 16 C1.35 16 -0.3 16 -2 16 C-0.68 15.67 0.64 15.34 2 15 C2 10.71 2 6.42 2 2 C1.34 2 0.68 2 0 2 C0 1.34 0 0.68 0 0 Z " fill="#49394A" transform="translate(102,110)"/>
<path d="M0 0 C0.33 0.66 0.66 1.32 1 2 C1.99 2 2.98 2 4 2 C4.02687279 3.81242052 4.04633715 5.62495233 4.0625 7.4375 C4.07410156 8.44683594 4.08570313 9.45617187 4.09765625 10.49609375 C4 13 4 13 3 14 C1.35 14 -0.3 14 -2 14 C-2 10.04 -2 6.08 -2 2 C-1.34 2 -0.68 2 0 2 C0 1.34 0 0.68 0 0 Z " fill="#EEECE3" transform="translate(196,110)"/>
<path d="M0 0 C1.32 0.99 2.64 1.98 4 3 C3.67 3.66 3.34 4.32 3 5 C2.67 4.67 2.34 4.34 2 4 C1.01 10.27 0.02 16.54 -1 23 C1.64 23 4.28 23 7 23 C4 25 4 25 1.3125 24.625 C0.1678125 24.315625 0.1678125 24.315625 -1 24 C-1.33 24.66 -1.66 25.32 -2 26 C-3 25 -3 25 -3.0534668 22.80688477 C-2.94134109 19.72487219 -2.82178234 16.6436359 -2.6875 13.5625 C-2.65205078 12.48677734 -2.61660156 11.41105469 -2.58007812 10.30273438 C-2.51530273 8.76262695 -2.51530273 8.76262695 -2.44921875 7.19140625 C-2.41143311 6.24467041 -2.37364746 5.29793457 -2.3347168 4.32250977 C-2 2 -2 2 0 0 Z " fill="#444142" transform="translate(132,25)"/>
<path d="M0 0 C0.99 0 1.98 0 3 0 C3 4.95 3 9.9 3 15 C4.32 15.33 5.64 15.66 7 16 C3.7 16 0.4 16 -3 16 C-2.01 15.67 -1.02 15.34 0 15 C0 10.05 0 5.1 0 0 Z " fill="#BCC3C0" transform="translate(155,111)"/>
<path d="M0 0 C1.32 0 2.64 0 4 0 C4 4.29 4 8.58 4 13 C2.68 13.33 1.36 13.66 0 14 C-1.10370043 10.6888987 -0.92673641 8.75251051 -0.5625 5.3125 C-0.46066406 4.31863281 -0.35882813 3.32476562 -0.25390625 2.30078125 C-0.17011719 1.54152344 -0.08632812 0.78226562 0 0 Z " fill="#ECE5D6" transform="translate(202,112)"/>
<path d="M0 0 C0.52464844 0.66 1.04929687 1.32 1.58984375 2 C3.42345128 4.28235102 5.26960506 6.55123295 7.12890625 8.8125 C7.68900391 9.49570312 8.24910156 10.17890625 8.82617188 10.8828125 C9.98529633 12.2961881 11.14676415 13.70764507 12.31054688 15.1171875 C15.17100759 18.61440591 17.81728881 22.02296039 20 26 C19.34 26.33 18.68 26.66 18 27 C17.3709375 26.17757812 16.741875 25.35515625 16.09375 24.5078125 C15.22917505 23.3802019 14.36459107 22.25259823 13.5 21.125 C13.05092285 20.53726807 12.6018457 19.94953613 12.13916016 19.34399414 C8.67899671 14.83257213 5.08940833 10.44667814 1.3984375 6.12109375 C0 4 0 4 0 0 Z " fill="#4D4A4A" transform="translate(107,46)"/>
<path d="M0 0 C3.18775058 0.3099766 6.3751491 0.62344236 9.5625 0.9375 C10.90538086 1.06801758 10.90538086 1.06801758 12.27539062 1.20117188 C17.20552409 1.68876749 22.10211759 2.2542319 27 3 C27 3.33 27 3.66 27 4 C19.61604326 4.12515181 12.35520932 3.63661781 5 3 C5.66 4.65 6.32 6.3 7 8 C4.35247996 5.42215154 2.05567935 3.08351902 0 0 Z " fill="#393637" transform="translate(12,14)"/>
<path d="M0 0 C1.32 0.33 2.64 0.66 4 1 C4 3.97 4 6.94 4 10 C2.68 10.33 1.36 10.66 0 11 C0 7.37 0 3.74 0 0 Z " fill="#E9F0ED" transform="translate(159,113)"/>
<path d="M0 0 C0.99 0 1.98 0 3 0 C3 4.62 3 9.24 3 14 C2.34 14 1.68 14 1 14 C-0.38226016 11.23547967 -0.09525387 8.9538637 -0.0625 5.875 C-0.05347656 4.77929688 -0.04445312 3.68359375 -0.03515625 2.5546875 C-0.02355469 1.71164063 -0.01195312 0.86859375 0 0 Z " fill="#D0D2C9" transform="translate(190,111)"/>
<path d="M0 0 C0.66 0 1.32 0 2 0 C2 0.66 2 1.32 2 2 C3.65 2 5.3 2 7 2 C7.33 3.65 7.66 5.3 8 7 C7.34 6.67 6.68 6.34 6 6 C6 5.34 6 4.68 6 4 C4.35 3.67 2.7 3.34 1 3 C1 3.99 1 4.98 1 6 C1.66 6 2.32 6 3 6 C3 6.66 3 7.32 3 8 C0.69 8 -1.62 8 -4 8 C-4 7.34 -4 6.68 -4 6 C-3 5 -2 4 -1 3 C-0.67 2.01 -0.34 1.02 0 0 Z " fill="#57494B" transform="translate(88,119)"/>
<path d="M0 0 C0.99 0 1.98 0 3 0 C3 3.3 3 6.6 3 10 C2.01 10.33 1.02 10.66 0 11 C0 7.37 0 3.74 0 0 Z " fill="#FBFBF6" transform="translate(211,113)"/>
<path d="M0 0 C1.9375 0.5625 1.9375 0.5625 4 2 C4.875 5.4375 4.875 5.4375 5 9 C4.01 10.485 4.01 10.485 3 12 C2.34 11.67 1.68 11.34 1 11 C1.03255208 9.01432292 1.06510417 7.02864583 1.09765625 5.04296875 C1.08263217 2.79694539 1.08263217 2.79694539 0 0 Z " fill="#DBE1D7" transform="translate(214,112)"/>
<path d="M0 0 C3 1 3 1 4 3 C4.25 6.5 4.25 6.5 4 10 C3.01 10.66 2.02 11.32 1 12 C0.67 8.04 0.34 4.08 0 0 Z " fill="#CCDADD" transform="translate(163,112)"/>
<path d="M0 0 C1.32 0.33 2.64 0.66 4 1 C4 5.62 4 10.24 4 15 C0 17 0 17 -2.25 16.625 C-3.11625 16.315625 -3.11625 16.315625 -4 16 C-3.030625 15.731875 -2.06125 15.46375 -1.0625 15.1875 C2.22571815 13.34716211 2.22571815 13.34716211 2.62109375 10.3515625 C2.85441221 7.55892004 2.99048582 4.80192703 3 2 C2.01 2 1.02 2 0 2 C0 1.34 0 0.68 0 0 Z " fill="#392F31" transform="translate(197,110)"/>
<path d="M0 0 C2.67901932 2.31881505 3.66204403 4.31814468 4.6875 7.6875 C4.93886719 8.49574219 5.19023438 9.30398437 5.44921875 10.13671875 C5.63097656 10.75160156 5.81273438 11.36648437 6 12 C5.01 12 4.02 12 3 12 C1.68 8.37 0.36 4.74 -1 1 C-0.67 0.67 -0.34 0.34 0 0 Z " fill="#DFE5DC" transform="translate(93,113)"/>
<path d="M0 0 C0.33 0 0.66 0 1 0 C1.05386629 2.12472576 1.09273071 4.24983652 1.125 6.375 C1.14820313 7.55835937 1.17140625 8.74171875 1.1953125 9.9609375 C1 13 1 13 -1 15 C-4.125 15.125 -4.125 15.125 -7 15 C-5 13.66666667 -3 12.33333333 -1 11 C-0.41651248 8.3443272 -0.41651248 8.3443272 -0.3125 5.375 C-0.24675781 4.37210937 -0.18101562 3.36921875 -0.11328125 2.3359375 C-0.07589844 1.56507812 -0.03851563 0.79421875 0 0 Z " fill="#5A382F" transform="translate(148,112)"/>
<path d="M0 0 C0.99 0 1.98 0 3 0 C3.66 1.98 4.32 3.96 5 6 C3.35 6 1.7 6 0 6 C-1.125 2.25 -1.125 2.25 0 0 Z " fill="#5A5763" transform="translate(90,115)"/>
<path d="M0 0 C1.32 0 2.64 0 4 0 C4 1.98 4 3.96 4 6 C2.68 6 1.36 6 0 6 C0 4.02 0 2.04 0 0 Z " fill="#E4EAE8" transform="translate(176,119)"/>
<path d="M0 0 C1.32 0 2.64 0 4 0 C4 1.98 4 3.96 4 6 C2.68 6 1.36 6 0 6 C0 4.02 0 2.04 0 0 Z " fill="#D7E5EC" transform="translate(124,119)"/>
<path d="M0 0 C3.63559661 3.43361902 6.36113346 6.7973607 9 11 C8.01 11 7.02 11 6 11 C4.17578125 9.03125 4.17578125 9.03125 2.3125 6.5 C1.68988281 5.6646875 1.06726563 4.829375 0.42578125 3.96875 C-0.04472656 3.3190625 -0.51523438 2.669375 -1 2 C-0.67 1.34 -0.34 0.68 0 0 Z " fill="#524E4F" transform="translate(75,92)"/>
<path d="M0 0 C0.721875 0.53625 1.44375 1.0725 2.1875 1.625 C4.93706631 3.35911051 4.93706631 3.35911051 7.8125 2.1875 C8.534375 1.795625 9.25625 1.40375 10 1 C8.625 3 8.625 3 7 5 C6.34 5 5.68 5 5 5 C4.67 5.66 4.34 6.32 4 7 C0 2.25 0 2.25 0 0 Z " fill="#363334" transform="translate(102,41)"/>
<path d="M0 0 C1.32 0.99 2.64 1.98 4 3 C3.67 3.66 3.34 4.32 3 5 C2.67 4.67 2.34 4.34 2 4 C1.67 5.65 1.34 7.3 1 9 C-0.9451 6.08235 -1.45276317 4.37462715 -2 1 C-1.34 0.67 -0.68 0.34 0 0 Z " fill="#535050" transform="translate(132,25)"/>
<path d="M0 0 C1.32 0 2.64 0 4 0 C4 1.65 4 3.3 4 5 C2.68 5 1.36 5 0 5 C0 3.35 0 1.7 0 0 Z " fill="#EEF6F3" transform="translate(176,112)"/>
<path d="M0 0 C1.32 0 2.64 0 4 0 C4 1.65 4 3.3 4 5 C2.68 5 1.36 5 0 5 C0 3.35 0 1.7 0 0 Z " fill="#E0F0F7" transform="translate(124,112)"/>
<path d="M0 0 C0.66 0.66 1.32 1.32 2 2 C4.65537372 2.56520003 7.29144713 2.73788198 10 3 C7 5 7 5 4.3125 4.625 C3.549375 4.41875 2.78625 4.2125 2 4 C1.67 4.66 1.34 5.32 1 6 C0 5 0 5 -0.0625 2.4375 C-0.041875 1.633125 -0.02125 0.82875 0 0 Z " fill="#535051" transform="translate(129,45)"/>
<path d="M0 0 C1.65 0 3.3 0 5 0 C5.33 0.99 5.66 1.98 6 3 C4.02 3 2.04 3 0 3 C0 2.01 0 1.02 0 0 Z " fill="#DCE2E3" transform="translate(89,122)"/>
</svg>
