<svg id="Layer_1" data-name="Layer 1" xmlns="http://www.w3.org/2000/svg" viewBox="0 0 1600 1600"><defs><style>.cls-1{fill:#fefefe;}.cls-2{fill:#080707;}</style></defs><path class="cls-1" d="M236.73,1531c-6.88-5.5-9.48-24.64-8.12-34.08,20.6-143.44,86.78-262,195.63-357C500.7,1073.19,589.32,1029,689,1010.55c160.23-29.66,309.54-.36,443.61,93.81C1255.93,1191,1333,1309.24,1366.2,1456c.15.64.44,74.43.65,75.06"/><path class="cls-2" d="M541.44,929.5C276,742.05,296.54,398.73,475.09,222.23c179.17-177.12,464.28-180.48,646.22-2.51,102.94,100.68,148.76,225.9,136.21,369.13-12.47,142.38-82.43,254.08-199.74,339.33,37.38,17.93,71.85,35,103.65,56.85,162,111.14,259.16,263.39,289,457.83a449.32,449.32,0,0,1,5.65,75.46c-.15,9.89-2.8,12.69-12.61,12.53-34.83-.55-69.69-.71-104.52.06-11.55.26-14.67-3.2-15.1-14.58-2.82-73.61-18-144.51-50.68-210.9-72.29-146.75-187.64-242.73-346.06-282.41-242.6-60.75-491.77,56.33-599.36,281.34q-47.44,99.21-50.82,208.52c-.48,15.93-6.24,18.56-20.41,18.09q-48.12-1.59-96.32,0c-13.81.46-16.85-3.91-16.38-17.06q8-223.07,148.58-396.13C359.54,1035.41,442.52,973.62,541.44,929.5Zm258.67-54.88C981,874.63,1127.8,728,1127.86,547.19S981.14,219.83,800.2,219.84,472.82,365.94,472.3,547C471.78,727.12,619.35,874.61,800.11,874.62Z"/><path class="cls-1" d="M800.11,874.62c-180.76,0-328.33-147.5-327.81-327.64.52-181,147-327.14,327.9-327.14s327.72,146.64,327.66,327.35S981,874.63,800.11,874.62Z"/></svg>